<svg width="52" height="52" viewBox="0 0 52 52" fill="none" xmlns="http://www.w3.org/2000/svg">
<path d="M43.969 7.54617C42.7616 6.33878 41.4536 5.26555 40.045 4.32647C38.6364 3.38739 37.1607 2.59924 35.6179 1.962C34.0751 1.32477 32.4821 0.838463 30.8387 0.503078C29.1617 0.167693 27.468 0 25.7576 0C24.0471 0 22.3534 0.167693 20.6765 0.503078C19.0331 0.838463 17.44 1.32477 15.8973 1.962C14.3545 2.59924 12.8788 3.38739 11.4702 4.32647C10.0616 5.26555 8.75355 6.33878 7.54617 7.54617C6.33878 8.75355 5.26555 10.0616 4.32647 11.4702C3.38739 12.8788 2.59924 14.3545 1.962 15.8973C1.32477 17.44 0.838463 19.0331 0.503078 20.6765C0.167693 22.3534 0 24.0471 0 25.7576C0 27.468 0.167693 29.1617 0.503078 30.8387C0.838463 32.4821 1.32477 34.0751 1.962 35.6179C2.59924 37.1607 3.38739 38.6364 4.32647 40.045C5.26555 41.4536 6.33878 42.7616 7.54617 43.969C8.75355 45.1764 10.0616 46.2496 11.4702 47.1887C12.8788 48.1278 14.3545 48.9159 15.8973 49.5532C17.44 50.1904 19.0331 50.6767 20.6765 51.0121C22.3534 51.3475 24.0471 51.5152 25.7576 51.5152C27.468 51.5152 29.1617 51.3475 30.8387 51.0121C32.4821 50.6767 34.0751 50.1904 35.6179 49.5532C37.1607 48.9159 38.6364 48.1278 40.045 47.1887C41.4536 46.2496 42.7616 45.1764 43.969 43.969C45.1764 42.7616 46.2496 41.4536 47.1887 40.045C48.1278 38.6364 48.9159 37.1607 49.5532 35.6179C50.1904 34.0751 50.6767 32.4821 51.0121 30.8387C51.3475 29.1617 51.5152 27.468 51.5152 25.7576C51.5152 24.0471 51.3475 22.3534 51.0121 20.6765C50.6767 19.0331 50.1904 17.44 49.5532 15.8973C48.9159 14.3545 48.1278 12.8788 47.1887 11.4702C46.2496 10.0616 45.1764 8.75355 43.969 7.54617ZM38.083 19.62L23.6447 34.0081C23.5105 34.1758 23.3428 34.2931 23.1416 34.3602C22.9739 34.4273 22.7894 34.4608 22.5882 34.4608C22.4205 34.4608 22.236 34.4273 22.0348 34.3602C21.8336 34.2931 21.6659 34.1758 21.5317 34.0081L13.4322 25.9588C13.1639 25.657 13.0297 25.3048 13.0297 24.9023C13.0297 24.4663 13.1639 24.0974 13.4322 23.7956C13.734 23.4937 14.0862 23.3428 14.4886 23.3428C14.9246 23.3428 15.2936 23.4937 15.5954 23.7956L22.5882 30.8387L35.9198 17.5071C36.2216 17.2053 36.5738 17.0543 36.9762 17.0543C37.4122 17.0543 37.7811 17.2053 38.083 17.5071C38.3513 17.809 38.4854 18.1611 38.4854 18.5636C38.4854 18.966 38.3513 19.3182 38.083 19.62Z" fill="#FEDF07"/>
</svg>
