<svg width="60" height="60" viewBox="0 0 60 60" fill="none" xmlns="http://www.w3.org/2000/svg">
<rect width="60" height="60"/>
<path d="M29.7576 4C26.2025 4 22.8654 4.67077 19.7463 6.01231C16.5937 7.35385 13.8436 9.19847 11.4959 11.5462C9.1817 13.8603 7.35385 16.5937 6.01231 19.7463C4.67077 22.8654 4 26.2025 4 29.7576C4 33.3127 4.67077 36.6497 6.01231 39.7688C7.35385 42.9214 9.1817 45.6716 11.4959 48.0193C13.8436 50.3335 16.5937 52.1613 19.7463 53.5028C22.8654 54.8444 26.2025 55.5152 29.7576 55.5152C33.3127 55.5152 36.6497 54.8444 39.7688 53.5028C42.9214 52.1613 45.6548 50.3335 47.969 48.0193C50.3167 45.6716 52.1613 42.9214 53.5028 39.7688C54.8444 36.6497 55.5152 33.3127 55.5152 29.7576C55.5152 26.2025 54.8444 22.8654 53.5028 19.7463C52.1613 16.5937 50.3167 13.8603 47.969 11.5462C45.6548 9.19847 42.9214 7.35385 39.7688 6.01231C36.6497 4.67077 33.3127 4 29.7576 4ZM29.8582 41.9321H18.6899C18.6899 37.9074 19.9308 35.4759 22.4126 34.6374C24.8945 33.7654 26.5211 32.8096 27.2925 31.7699L27.4937 30.814C26.387 30.2439 25.4814 29.3384 24.7771 28.0974C24.0728 26.823 23.7206 25.3976 23.7206 23.8213C23.7206 21.7754 24.3076 20.0146 25.4814 18.5389C26.6553 17.0633 28.0807 16.3254 29.7576 16.3254C31.4345 16.3254 32.8599 17.0633 34.0337 18.5389C35.2076 20.0146 35.7945 21.7754 35.7945 23.8213C35.7945 25.3976 35.4424 26.8062 34.738 28.0471C34.0673 29.288 33.1785 30.1936 32.0717 30.7637L32.273 31.8705C33.145 32.8767 34.7884 33.8157 37.2031 34.6877C39.6179 35.5597 40.8253 37.9745 40.8253 41.9321H29.8582Z" fill="#FEDF07"/>
</svg>
