<svg width="60" height="60" viewBox="0 0 60 60" fill="none" xmlns="http://www.w3.org/2000/svg">
<rect width="60" height="60"/>
<path d="M4 41.0891C4.33539 41.0891 4.67077 41.0891 5.00616 41.0891C5.37508 41.0891 5.71046 41.0891 6.01231 41.0891C6.18 41.0891 6.29739 41.0723 6.36447 41.0388C6.43154 40.9717 6.49862 40.8543 6.5657 40.6866C7.06877 39.1774 7.57185 37.6514 8.07493 36.1086C8.57801 34.5658 9.08109 33.0231 9.58416 31.4803C10.1208 29.9375 10.6406 28.4115 11.1437 26.9023C11.6468 25.3595 12.1666 23.8167 12.7032 22.274C12.7032 22.2404 12.7032 22.2237 12.7032 22.2237C12.938 21.8883 13.0219 21.5529 12.9548 21.2175C12.8877 20.8821 12.7871 20.53 12.6529 20.161C12.5188 19.7586 12.502 19.3729 12.6026 19.004C12.7032 18.635 12.9212 18.3164 13.2566 18.0481C13.7262 17.6457 14.1454 17.4444 14.5143 17.4444C14.8832 17.4109 15.3192 17.4947 15.8223 17.696C15.9229 17.7295 16.0236 17.7463 16.1242 17.7463C16.2583 17.7463 16.3589 17.7127 16.426 17.6457C17.0633 17.1426 17.6837 16.6395 18.2874 16.1364C18.9246 15.6333 19.5786 15.147 20.2494 14.6775C21.0543 14.0738 21.9096 13.6546 22.8151 13.4198C23.7206 13.1515 24.6765 13.1012 25.6827 13.2689C25.7497 13.2689 25.8168 13.2521 25.8839 13.2186C25.9845 13.185 26.0516 13.1347 26.0851 13.0676C26.4876 12.4304 26.9907 11.9441 27.5943 11.6087C28.198 11.2398 28.8688 11.0386 29.6067 11.005C30.3445 10.9715 31.0153 11.1056 31.619 11.4075C32.2562 11.7093 32.8096 12.1453 33.2791 12.7155C33.4133 12.9167 33.5307 13.0676 33.6313 13.1683C33.7654 13.2353 33.9667 13.2521 34.235 13.2186C35.2747 13.0844 36.2305 13.185 37.1025 13.5204C38.0081 13.8223 38.8633 14.275 39.6682 14.8787C40.2048 15.2812 40.7247 15.7004 41.2278 16.1364C41.7308 16.5389 42.2507 16.9581 42.7873 17.3941C42.955 17.5283 43.1227 17.6457 43.2904 17.7463C43.4916 17.8134 43.7264 17.7798 43.9947 17.6457C44.4642 17.4444 44.9338 17.4109 45.4033 17.545C45.8728 17.6457 46.2418 17.8637 46.5101 18.199C46.8119 18.568 46.9796 19.0207 47.0131 19.5574C47.0467 20.0604 46.9293 20.4964 46.661 20.8654C46.5939 20.9324 46.5604 21.033 46.5604 21.1672C46.5604 21.2678 46.5771 21.3684 46.6107 21.469C47.4156 23.8503 48.2038 26.2315 48.9752 28.6128C49.7801 30.994 50.585 33.3752 51.3899 35.7565C51.6582 36.5949 51.9265 37.4166 52.1948 38.2215C52.4967 39.0265 52.765 39.8482 52.9998 40.6866C53.0668 40.8543 53.1339 40.9717 53.201 41.0388C53.2681 41.0723 53.3855 41.0891 53.5532 41.0891C53.8885 41.0891 54.2239 41.0891 54.5593 41.0891C54.8947 41.0891 55.2469 41.0891 55.6158 41.0891C55.4145 41.894 55.1295 42.6654 54.7605 43.4032C54.4252 44.1075 54.0227 44.7951 53.5532 45.4659C52.7818 46.472 51.893 47.3272 50.8868 48.0316C49.9142 48.7023 48.8075 49.1719 47.5665 49.4402C45.8561 49.8091 44.263 49.8594 42.7873 49.5911C41.3116 49.3228 39.9868 48.8197 38.813 48.0819C37.6727 47.3105 36.7001 46.3379 35.8951 45.164C35.0567 43.9566 34.4362 42.5983 34.0337 41.0891C34.4362 41.0891 34.8387 41.0891 35.2411 41.0891C35.6436 41.0891 36.0461 41.0891 36.4485 41.0891C37.1528 39.0097 37.8571 36.9303 38.5614 34.8509C39.2657 32.738 39.9701 30.6418 40.6744 28.5624C41.0433 27.4221 41.4122 26.2651 41.7811 25.0912C42.1836 23.9174 42.5861 22.7435 42.9885 21.5697C43.0221 21.5026 43.0556 21.4187 43.0891 21.3181C43.1227 21.2175 43.1227 21.1337 43.0891 21.0666C43.0221 20.8989 42.955 20.7144 42.8879 20.5132C42.8208 20.312 42.7034 20.161 42.5358 20.0604C41.8314 19.4567 41.1104 18.8698 40.3725 18.2997C39.6347 17.7295 38.8968 17.1761 38.159 16.6395C37.6894 16.2706 37.1696 15.9687 36.5994 15.734C36.0628 15.4992 35.4759 15.3986 34.8387 15.4321C34.7716 15.4321 34.7045 15.4321 34.6374 15.4321C34.6039 15.4321 34.5536 15.4321 34.4865 15.4321C34.453 15.4321 34.4027 15.4489 34.3356 15.4824C34.2685 15.516 34.2014 15.5495 34.1344 15.583C34.1008 16.1867 33.9499 16.7569 33.6816 17.2935C33.4468 17.7966 33.0947 18.2493 32.6251 18.6518C32.1556 19.0878 31.619 19.3897 31.0153 19.5574C30.4451 19.6915 29.8414 19.725 29.2042 19.658C28.2987 19.5574 27.477 19.1717 26.7391 18.5009C26.0013 17.7966 25.5653 16.8072 25.4311 15.5327C24.8274 15.365 24.2573 15.3483 23.7206 15.4824C23.184 15.583 22.681 15.801 22.2114 16.1364C21.6077 16.5389 21.0208 16.9749 20.4506 17.4444C19.8805 17.914 19.2936 18.3667 18.6899 18.8027C18.5557 18.9369 18.4048 19.071 18.2371 19.2052C18.1029 19.3058 17.952 19.4064 17.7843 19.507C17.4489 19.6747 17.1806 19.8927 16.9794 20.161C16.7782 20.3958 16.6273 20.6809 16.5266 21.0163C16.4931 21.0834 16.4763 21.1504 16.4763 21.2175C16.4763 21.2846 16.4931 21.3517 16.5266 21.4187C17.0633 23.0621 17.5999 24.6887 18.1365 26.2986C18.7066 27.942 19.26 29.5854 19.7966 31.2288C20.3333 32.8721 20.8866 34.5155 21.4568 36.1589C21.9934 37.7688 22.53 39.3954 23.0666 41.0388C23.1002 41.0388 23.1337 41.0555 23.1673 41.0891C23.5362 41.0891 23.9219 41.0891 24.3243 41.0891C24.7268 41.0891 25.146 41.0891 25.582 41.0891C25.3137 41.9946 24.9783 42.8499 24.5759 43.6548C24.1734 44.4597 23.6871 45.2143 23.117 45.9186C22.4126 46.7571 21.6245 47.4782 20.7525 48.0819C19.8805 48.652 18.9246 49.0712 17.8849 49.3396C17.1136 49.5408 16.3589 49.6749 15.6211 49.742C14.8832 49.7756 14.1286 49.742 13.3572 49.6414C12.4852 49.5408 11.63 49.3563 10.7915 49.088C9.98662 48.8197 9.23201 48.4172 8.5277 47.8806C8.12524 47.6123 7.73954 47.2937 7.37062 46.9248C7.03524 46.5559 6.69985 46.1869 6.36447 45.818C5.79431 45.1808 5.32477 44.4932 4.95585 43.7554C4.62046 43.0175 4.30185 42.2629 4 41.4915C4 41.4245 4 41.3574 4 41.2903C4 41.2232 4 41.1562 4 41.0891ZM14.7659 23.2298C14.2628 24.7391 13.7597 26.2315 13.2566 27.7072C12.7536 29.1829 12.2505 30.6754 11.7474 32.1846C11.2779 33.6603 10.7915 35.136 10.2885 36.6117C9.78539 38.0874 9.29909 39.5631 8.82955 41.0388C10.8083 41.0388 12.7871 41.0388 14.7659 41.0388C16.7446 41.0388 18.7234 41.0388 20.7022 41.0388C20.1991 39.5631 19.7128 38.0874 19.2433 36.6117C18.7402 35.136 18.2371 33.6603 17.734 32.1846C17.2309 30.6754 16.7446 29.1829 16.2751 27.7072C15.772 26.2315 15.2689 24.7391 14.7659 23.2298ZM50.7862 41.0388C50.2832 39.5631 49.7801 38.0874 49.277 36.6117C48.7739 35.136 48.2708 33.6603 47.7678 32.1846C47.2982 30.6754 46.8119 29.1829 46.3088 27.7072C45.8058 26.2315 45.3027 24.7391 44.7996 23.2298C44.2965 24.7391 43.8102 26.2315 43.3407 27.7072C42.8376 29.1829 42.3345 30.6754 41.8314 32.1846C41.3284 33.6603 40.8421 35.136 40.3725 36.6117C39.8694 38.0874 39.3664 39.5631 38.8633 41.0388C40.8421 41.0388 42.8208 41.0388 44.7996 41.0388C46.7784 41.0388 48.7739 41.0388 50.7862 41.0388Z" fill="#FEDF07"/>
</svg>
