<?xml version="1.0" encoding="utf-8"?><svg viewBox="0 0 512 512" xmlns="http://www.w3.org/2000/svg" xmlns:xlink="http://www.w3.org/1999/xlink"><style>:root>svg{display:none}:root>svg:target{display:block}</style><svg viewBox="0 0 512 512" id="book" xmlns="http://www.w3.org/2000/svg"><path d="M502 85.73h-38.506C406.351 68.271 331.704 52.877 256 84.832c-19.425-8.2-38.78-13.276-57.788-16.006a10.02 10.02 0 00-1.58-.222c-54.489-7.46-106.052 4.27-148.126 17.126H10c-5.523 0-10 4.477-10 10v340c0 5.523 4.477 10 10 10h492c5.523 0 10-4.477 10-10v-340c0-5.523-4.477-10-10-10zm-236.054 16.629c66.695-27.263 133.542-14.75 186.054.797V382.3c-23.253-6.731-50.06-13.111-79.458-15.33a283.932 283.932 0 00-21.36-.815c-30.318 0-59.12 5.033-85.984 15.029-.78-42.687-.061-180.65.748-278.825zm-21.029 246.109c.054 13.553.151 24.344.29 32.13-32.665-11.883-68.158-16.465-105.749-13.628-29.398 2.219-56.205 8.599-79.458 15.33V103.156c20.159-5.969 42.434-11.486 66-14.481v87.055a10 10 0 0018 6l22-29.333 22 29.333a10 10 0 0018-6V90.459c13.244 2.557 26.598 6.408 39.946 11.855-.16 19.986-.635 81.773-.897 142.99-.186 43.5-.23 78.21-.132 103.164zM492 425.73H20v-320h20v290a10 10 0 0012.941 9.558c38.221-11.76 117.613-36.188 198.184-.779 2.917 1.557 6.153 1.595 8.937.36 80.85-35.933 160.648-11.38 198.998.42a9.998 9.998 0 0012.941-9.558v-290h20V425.73z"/><path d="M296.879 311.301c16.841-3.425 34.331-5.161 51.982-5.161 22.575 0 50.472 2.813 71.071 7.167.697.147 1.393.218 2.078.218 4.625 0 8.779-3.228 9.773-7.934 1.142-5.404-2.313-10.71-7.716-11.852-21.841-4.616-51.362-7.599-75.207-7.599-18.987 0-37.817 1.871-55.967 5.562-5.412 1.101-8.907 6.38-7.807 11.792 1.102 5.412 6.381 8.908 11.793 7.807zM298.552 253.296c15.955-4.612 32.904-6.95 50.377-6.95 26.202 0 54.384 4.904 70.557 9.103.843.219 1.688.323 2.52.323 4.445 0 8.503-2.986 9.672-7.489 1.388-5.346-1.82-10.804-7.166-12.192-17.313-4.495-47.497-9.745-75.583-9.745-19.353 0-38.171 2.603-55.931 7.737-5.306 1.534-8.364 7.078-6.83 12.384 1.534 5.305 7.08 8.362 12.384 6.829zM317.676 168.926c10.072-1.712 20.587-2.58 31.254-2.58 16.153 0 37.184 1.913 51.145 4.652.65.127 1.297.189 1.936.189 4.684 0 8.866-3.307 9.802-8.077 1.063-5.419-2.468-10.675-7.888-11.738-15.083-2.959-37.699-5.026-54.996-5.026-11.787 0-23.43.963-34.605 2.863-5.445.926-9.108 6.09-8.183 11.535a9.999 9.999 0 0011.535 8.182zM216.865 291.256c-17.447-3.395-35.523-5.116-53.726-5.116-23.845 0-53.365 2.983-75.207 7.599-5.403 1.142-8.858 6.448-7.716 11.852.995 4.707 5.148 7.934 9.773 7.934.685 0 1.381-.071 2.078-.218 20.599-4.354 48.496-7.167 71.071-7.167 16.924 0 33.715 1.597 49.907 4.748 5.42 1.055 10.671-2.485 11.726-7.906 1.055-5.422-2.485-10.671-7.906-11.726zM218.537 233.948c-17.628-5.045-36.29-7.603-55.466-7.603-28.087 0-58.271 5.25-75.583 9.745-5.346 1.388-8.554 6.846-7.166 12.192 1.169 4.503 5.227 7.49 9.672 7.489.832 0 1.678-.105 2.52-.323 16.173-4.199 44.355-9.103 70.557-9.103 17.315 0 34.125 2.298 49.963 6.831 5.31 1.52 10.847-1.553 12.366-6.863 1.519-5.309-1.554-10.845-6.863-12.365z"/></svg><svg viewBox="0 0 512 512" id="certified" xmlns="http://www.w3.org/2000/svg"><path d="M256.079 116.703c-36.307 0-70.825 17.498-92.333 46.806a9.71 9.71 0 00-.831 10.186 9.732 9.732 0 008.721 5.359h.012l168.724-.218a9.733 9.733 0 008.721-5.379 9.71 9.71 0 00-.857-10.185c-21.513-29.159-55.964-46.569-92.157-46.569zm-73.464 47.372c18.741-20.458 45.492-32.407 73.464-32.407 27.872 0 54.558 11.879 73.289 32.218zM162.915 338.303a9.712 9.712 0 00.831 10.187c21.508 29.308 56.025 46.805 92.333 46.805 36.193 0 70.644-17.408 92.157-46.568a9.712 9.712 0 00.857-10.187 9.732 9.732 0 00-8.719-5.379l-168.726-.218h-.012a9.735 9.735 0 00-8.721 5.36zm166.453 9.81c-18.73 20.339-45.417 32.218-73.289 32.218-27.972 0-54.724-11.95-73.465-32.407z"/><path d="M494.849 193.79h-30.991a14.39 14.39 0 011.13-3.429c8.192-17.206 7.402-37.318-2.115-53.799a57.845 57.845 0 00-45.534-28.732 14.287 14.287 0 01-13.169-13.169 57.853 57.853 0 00-28.731-45.534 57.844 57.844 0 00-53.799-2.115 14.291 14.291 0 01-17.991-4.821C292.844 26.494 275.031 17.123 256 17.123s-36.844 9.37-47.649 25.067a14.29 14.29 0 01-17.991 4.821 57.844 57.844 0 00-53.799 2.115A57.849 57.849 0 00107.83 94.66a14.287 14.287 0 01-13.169 13.169c-18.996 1.509-36.019 12.25-45.534 28.732-9.517 16.481-10.307 36.593-2.115 53.799a14.463 14.463 0 011.12 3.429H17.151C7.694 193.79 0 201.484 0 210.941v90.118c0 9.457 7.694 17.151 17.151 17.151h30.986a14.433 14.433 0 01-1.125 3.429c-8.192 17.206-7.402 37.318 2.115 53.799a57.845 57.845 0 0045.534 28.732 14.287 14.287 0 0113.169 13.169 57.853 57.853 0 0028.731 45.534 57.848 57.848 0 0053.799 2.115 14.29 14.29 0 0117.991 4.821c10.805 15.697 28.617 25.067 47.649 25.067s36.844-9.371 47.649-25.067a14.294 14.294 0 0117.991-4.821 57.841 57.841 0 0053.799-2.115 57.849 57.849 0 0028.731-45.534 14.287 14.287 0 0113.169-13.169c18.996-1.509 36.019-12.25 45.534-28.732 9.517-16.481 10.307-36.593 2.115-53.799a14.424 14.424 0 01-1.122-3.429h30.982c9.457 0 17.151-7.694 17.151-17.151v-90.118c.001-9.457-7.693-17.151-17.15-17.151zM62.087 144.044a42.883 42.883 0 0133.759-21.297c14.442-1.147 25.756-12.461 26.903-26.903a42.889 42.889 0 0121.296-33.759 42.89 42.89 0 0139.884-1.564c13.084 6.23 28.537 2.086 36.75-9.846 8.012-11.64 21.217-18.588 35.322-18.588s27.31 6.949 35.322 18.588c8.214 11.932 23.671 16.075 36.75 9.846a42.887 42.887 0 0139.884 1.564 42.889 42.889 0 0121.296 33.759c1.146 14.442 12.461 25.756 26.903 26.903a42.884 42.884 0 0133.759 21.297c7.054 12.215 7.637 27.125 1.564 39.884a29.421 29.421 0 00-2.726 9.862h-32.474c-9.724-25.037-25.268-47.747-45.703-66.017a7.482 7.482 0 10-9.974 11.155c17.172 15.353 30.545 34.146 39.491 54.862H111.877C136.015 138.083 191.525 99.008 256 99.008c27.3 0 54.183 7.112 77.743 20.569a7.482 7.482 0 107.422-12.994c-25.817-14.745-55.266-22.54-85.165-22.54-72.889 0-135.323 45.588-160.307 109.747h-32.44a29.459 29.459 0 00-2.73-9.862 42.882 42.882 0 011.564-39.884zm387.826 223.912a42.883 42.883 0 01-33.759 21.297c-14.442 1.147-25.756 12.461-26.903 26.903a42.889 42.889 0 01-21.296 33.759 42.896 42.896 0 01-39.884 1.564c-13.082-6.227-28.536-2.085-36.75 9.846-8.012 11.64-21.217 18.588-35.322 18.588s-27.31-6.948-35.322-18.588c-5.648-8.204-14.719-12.725-24.088-12.725-4.257 0-8.576.933-12.662 2.879a42.885 42.885 0 01-39.884-1.564 42.889 42.889 0 01-21.296-33.759c-1.146-14.442-12.461-25.756-26.903-26.903a42.884 42.884 0 01-33.759-21.297c-7.054-12.215-7.637-27.125-1.564-39.884a29.458 29.458 0 002.733-9.862h32.447C120.688 382.366 183.113 427.956 256 427.956c72.889 0 135.322-45.589 160.305-109.746h32.436a29.454 29.454 0 002.736 9.862 42.882 42.882 0 01-1.564 39.884zm47.122-66.897a2.189 2.189 0 01-2.186 2.186H174.607a7.482 7.482 0 100 14.964h225.511C375.98 373.916 320.474 412.991 256 412.991c-64.476 0-119.99-39.073-144.127-94.781h27.639a7.482 7.482 0 100-14.964H17.151a2.189 2.189 0 01-2.186-2.186v-90.118c0-1.205.981-2.186 2.186-2.186h477.698c1.205 0 2.186.981 2.186 2.186z"/><path d="M280.326 218.953a7.482 7.482 0 00-7.482 7.482v59.13a7.482 7.482 0 1014.964 0v-59.13a7.482 7.482 0 00-7.482-7.482zM357.984 218.953a7.482 7.482 0 00-7.482 7.482v59.13a7.482 7.482 0 1014.964 0v-59.13a7.48 7.48 0 00-7.482-7.482zM332.367 234.351a7.482 7.482 0 007.482-7.482 7.482 7.482 0 00-7.482-7.482h-23.789a7.481 7.481 0 00-7.482 7.482v58.696c0 4.133 3.349 7.482 7.482 7.482s7.482-3.35 7.482-7.482v-22.422h14.417c4.133 0 7.482-3.349 7.482-7.482s-3.35-7.482-7.482-7.482H316.06v-13.827h16.307zM139.512 234.457a7.482 7.482 0 007.482-7.482 7.482 7.482 0 00-7.482-7.482h-24.688a7.481 7.481 0 00-7.482 7.482v58.59a7.482 7.482 0 007.482 7.482h24.688a7.482 7.482 0 007.482-7.482 7.482 7.482 0 00-7.482-7.482h-17.205v-14.33h15.385a7.481 7.481 0 007.482-7.483 7.482 7.482 0 00-7.482-7.482h-15.385v-14.331zM408.289 234.457a7.482 7.482 0 100-14.964h-24.687a7.481 7.481 0 00-7.482 7.482v58.59a7.482 7.482 0 007.482 7.482h24.687a7.482 7.482 0 100-14.964h-17.205v-14.33h15.385a7.481 7.481 0 007.482-7.483 7.482 7.482 0 00-7.482-7.482h-15.385v-14.331zM450.159 220.702h-16.252a7.482 7.482 0 00-7.482 7.497v.045s.051 57.367.143 57.836a7.476 7.476 0 002.186 4.795 7.483 7.483 0 005.271 2.172h.028c.491-.002 12.08-.047 16.713-.128 17.411-.305 30.048-15.464 30.048-36.045-.001-21.635-12.32-36.172-30.655-36.172zm.345 57.255c-2.079.036-5.7.066-9.023.087a9064.51 9064.51 0 01-.05-21.232c0-4.062-.017-14.103-.028-21.144h8.756c14.558 0 15.689 16.232 15.689 21.207 0 14.378-7.707 20.948-15.344 21.082zM91.667 271.484a7.483 7.483 0 00-10.542.927 16.166 16.166 0 01-1.642 1.695c-2.962 2.638-6.747 3.976-11.249 3.976-12.177 0-22.082-9.906-22.082-22.082s9.905-22.083 22.082-22.083c4.425 0 8.693 1.303 12.341 3.768a7.483 7.483 0 008.377-12.401 36.863 36.863 0 00-20.718-6.332c-20.428 0-37.047 16.619-37.047 37.048 0 20.428 16.619 37.047 37.047 37.047 8.167 0 15.499-2.685 21.202-7.766a31.36 31.36 0 003.158-3.256 7.484 7.484 0 00-.927-10.541zM254.294 218.953H221.64a7.482 7.482 0 100 14.964h8.778v51.647a7.482 7.482 0 1014.964 0v-51.647h8.911c4.133 0 7.482-3.35 7.482-7.482s-3.348-7.482-7.481-7.482zM206.928 241.802c0-12.599-10.641-22.85-23.72-22.85h-15.732a7.482 7.482 0 00-7.483 7.482v59.13c0 4.133 3.35 7.482 7.483 7.482s7.482-3.35 7.482-7.482v-16.496l18.87 21.44a7.462 7.462 0 005.62 2.539 7.482 7.482 0 005.613-12.426l-14.931-16.965c9.713-2.86 16.798-11.574 16.798-21.854zm-23.72 7.885c-1.91 0-5.135.013-8.163.027-.016-2.951-.036-12.703-.045-15.797h8.208c4.746 0 8.755 3.611 8.755 7.885s-4.009 7.885-8.755 7.885z"/></svg><svg fill="none" viewBox="0 0 52 52" id="check" xmlns="http://www.w3.org/2000/svg"><path d="M43.969 7.546a25.695 25.695 0 00-8.351-5.584 26.227 26.227 0 00-4.78-1.459A25.847 25.847 0 0025.759 0c-1.71 0-3.405.168-5.081.503a26.225 26.225 0 00-4.78 1.459 25.694 25.694 0 00-8.351 5.584 25.694 25.694 0 00-5.584 8.351 26.225 26.225 0 00-1.459 4.78A25.845 25.845 0 000 25.757c0 1.711.168 3.405.503 5.082a26.227 26.227 0 001.459 4.779 25.695 25.695 0 005.584 8.351 25.695 25.695 0 008.351 5.584 26.228 26.228 0 004.78 1.46c1.676.334 3.37.502 5.08.502 1.711 0 3.405-.168 5.082-.503a26.23 26.23 0 004.779-1.459 25.696 25.696 0 008.351-5.584 25.696 25.696 0 005.584-8.351 26.23 26.23 0 001.46-4.78c.334-1.676.502-3.37.502-5.08s-.168-3.405-.503-5.081a26.228 26.228 0 00-1.459-4.78 25.695 25.695 0 00-5.584-8.351zM38.083 19.62L23.645 34.008a1.063 1.063 0 01-.503.352c-.168.067-.353.1-.554.1-.168 0-.352-.033-.553-.1a1.063 1.063 0 01-.503-.352l-8.1-8.05a1.54 1.54 0 01-.402-1.056c0-.436.134-.805.402-1.106a1.448 1.448 0 011.057-.453c.436 0 .805.15 1.106.453l6.993 7.043L35.92 17.507a1.448 1.448 0 011.056-.453c.436 0 .805.151 1.107.453.268.302.402.654.402 1.057 0 .402-.134.754-.402 1.056z" fill="#FEDF07"/></svg><svg fill="none" viewBox="0 0 60 60" id="clock" xmlns="http://www.w3.org/2000/svg"><path d="M0 0h60v60H0z"/><path d="M37.153 41.68L26.538 31.117V16.879h6.44v11.52l8.703 8.754-4.528 4.528zM29.758 4c-3.555 0-6.893.67-10.012 2.012-3.152 1.342-5.902 3.186-8.25 5.534-2.314 2.314-4.142 5.048-5.484 8.2C4.671 22.866 4 26.203 4 29.758c0 3.555.67 6.892 2.012 10.01 1.342 3.153 3.17 5.904 5.484 8.251 2.348 2.315 5.098 4.142 8.25 5.484 3.12 1.341 6.457 2.012 10.012 2.012 3.555 0 6.892-.67 10.01-2.012 3.153-1.342 5.887-3.17 8.201-5.484 2.348-2.347 4.192-5.098 5.534-8.25 1.341-3.12 2.012-6.456 2.012-10.011 0-3.555-.67-6.893-2.012-10.012-1.342-3.152-3.186-5.886-5.534-8.2-2.314-2.348-5.048-4.192-8.2-5.534C36.649 4.671 33.313 4 29.758 4zm0 45.076c-2.683 0-5.182-.503-7.496-1.51a19.991 19.991 0 01-6.188-4.125 19.994 19.994 0 01-4.125-6.188c-1.006-2.314-1.51-4.812-1.51-7.495s.504-5.182 1.51-7.496c1.006-2.348 2.38-4.394 4.125-6.138a19.56 19.56 0 016.188-4.175c2.314-1.006 4.813-1.51 7.496-1.51 2.683 0 5.181.504 7.495 1.51a18.976 18.976 0 016.138 4.175 18.976 18.976 0 014.175 6.138c1.007 2.314 1.51 4.813 1.51 7.496 0 2.683-.503 5.181-1.51 7.495a19.561 19.561 0 01-4.175 6.188c-1.744 1.744-3.79 3.12-6.138 4.125-2.314 1.007-4.812 1.51-7.495 1.51z" fill="#FEDF07"/></svg><svg viewBox="0 0 492 492" id="close" xmlns="http://www.w3.org/2000/svg"><path d="M300.188 246L484.14 62.04c5.06-5.064 7.852-11.82 7.86-19.024 0-7.208-2.792-13.972-7.86-19.028L468.02 7.872C462.952 2.796 456.196.016 448.984.016c-7.2 0-13.956 2.78-19.024 7.856L246.008 191.82 62.048 7.872C56.988 2.796 50.228.016 43.02.016c-7.2 0-13.96 2.78-19.02 7.856L7.872 23.988c-10.496 10.496-10.496 27.568 0 38.052L191.828 246 7.872 429.952C2.808 435.024.02 441.78.02 448.984c0 7.204 2.788 13.96 7.852 19.028l16.124 16.116c5.06 5.072 11.824 7.856 19.02 7.856 7.208 0 13.968-2.784 19.028-7.856l183.96-183.952 183.952 183.952c5.068 5.072 11.824 7.856 19.024 7.856h.008c7.204 0 13.96-2.784 19.028-7.856l16.12-16.116c5.06-5.064 7.852-11.824 7.852-19.028 0-7.204-2.792-13.96-7.852-19.028L300.188 246z"/></svg><svg data-name="Layer 1" viewBox="0 0 512 512" id="concept" xmlns="http://www.w3.org/2000/svg"><path d="M256 63.8a6 6 0 006-6V11a6 6 0 00-12 0v46.8a6 6 0 006 6zM478.986 227.985h-46.8a6 6 0 100 12h46.8a6 6 0 000-12zM79.811 227.985h-46.8a6 6 0 100 12h46.8a6 6 0 100-12zM424.771 65.215a6 6 0 00-8.486 0l-36.516 36.516a6 6 0 008.485 8.486L424.771 73.7a6 6 0 000-8.485zM132.232 110.217a6 6 0 000-8.486L95.715 65.215A6 6 0 1087.23 73.7l36.516 36.516a6 6 0 008.486 0zM152.082 226.645a6 6 0 0012 0c0-1.35.03-2.716.088-4.061a6 6 0 10-11.989-.515 105.635 105.635 0 00-.099 4.576zM159.576 208.412a6 6 0 007.282-4.357 92.124 92.124 0 0175.18-68.289 6 6 0 00-1.793-11.865 104.13 104.13 0 00-85.026 77.23 6 6 0 004.357 7.281z"/><path d="M346.317 134.784a128.778 128.778 0 00-169.054-10.242 6.015 6.015 0 00-.582 9.008 6.014 6.014 0 007.946.471A116.925 116.925 0 01335.686 312.2a94.683 94.683 0 00-30.373 68.946v4.833h-31.25l24.9-110.563c2.575-3.72 4.1-5.271 6.6-5.271a6 6 0 100-12c-9.465 0-14.119 6.925-17.518 11.981-3.187 4.744-4.764 6.675-7.558 6.675s-4.371-1.931-7.559-6.675c-3.4-5.056-8.052-11.981-17.518-11.981s-14.11 6.925-17.51 11.983c-3.185 4.742-4.76 6.673-7.549 6.673s-4.367-1.931-7.553-6.674c-3.4-5.057-8.05-11.982-17.515-11.982a6 6 0 000 12c2.542 0 4.08 1.609 6.739 5.476l25.85 110.358h-31.185v-4.833a92.928 92.928 0 00-29.754-68.374 117.086 117.086 0 01-24.375-140.738 6.014 6.014 0 00-1.04-7.079 6 6 0 00-9.536 1.4 129.1 129.1 0 0026.835 155.257 80.9 80.9 0 0125.871 59.535v4.953a18.23 18.23 0 00-16.161 18.087v1.61a18.2 18.2 0 007.961 15.041 18.068 18.068 0 00-2.631 9.38v1.611a18.2 18.2 0 007.961 15.04 18.07 18.07 0 00-2.632 9.381v1.61a18.219 18.219 0 0017.361 18.168A40.526 40.526 0 00245.994 507h20.012a40.526 40.526 0 0039.448-30.969 18.218 18.218 0 0017.361-18.168v-1.61a18.07 18.07 0 00-2.632-9.381 18.2 18.2 0 007.962-15.04v-1.611a18.066 18.066 0 00-2.632-9.38 18.2 18.2 0 007.961-15.041v-1.61a18.23 18.23 0 00-16.161-18.09v-5.05a82.6 82.6 0 0126.552-60.073 128.755 128.755 0 002.452-186.2zm-118.94 153.76a17.713 17.713 0 002.977.257c9.463 0 14.114-6.926 17.511-11.983 3.184-4.742 4.759-6.673 7.548-6.673s4.371 1.931 7.559 6.675c3.4 5.056 8.052 11.981 17.518 11.981a17.649 17.649 0 003.225-.292l-21.953 97.47H250.2zM266.006 495h-20.012a28.554 28.554 0 01-26.929-18.926h73.87A28.557 28.557 0 01266.006 495zm44.809-37.137a6.218 6.218 0 01-6.211 6.211H207.4a6.218 6.218 0 01-6.211-6.211v-1.61a6.218 6.218 0 016.211-6.211h97.2a6.218 6.218 0 016.211 6.211zm5.33-26.031a6.218 6.218 0 01-6.211 6.21H202.066a6.217 6.217 0 01-6.21-6.21v-1.611a6.217 6.217 0 016.21-6.21h107.868a6.218 6.218 0 016.211 6.21zm5.329-27.642v1.61a6.218 6.218 0 01-6.21 6.211H196.736a6.218 6.218 0 01-6.21-6.211v-1.61a6.218 6.218 0 016.21-6.211h118.528a6.218 6.218 0 016.21 6.211z"/></svg><svg viewBox="0 0 511.974 511.974" id="email" xmlns="http://www.w3.org/2000/svg"><path d="M511.872 195.725a8.065 8.065 0 00-.35-1.732 8.533 8.533 0 00-.486-1.468 7.655 7.655 0 00-.853-1.306 8.046 8.046 0 00-1.135-1.323c-.137-.119-.196-.282-.341-.401l-82.065-63.735V59.704c0-14.138-11.462-25.6-25.6-25.6h-92.476L271.539 5.355a25.302 25.302 0 00-31.121 0l-37.035 28.749h-92.476c-14.138 0-25.6 11.461-25.6 25.6v66.057L3.268 189.496c-.145.12-.205.282-.341.401a8.005 8.005 0 00-1.135 1.323 7.616 7.616 0 00-.853 1.306 8.42 8.42 0 00-.486 1.468 8.087 8.087 0 00-.35 1.707c0 .179-.102.333-.102.512V486.37a25.313 25.313 0 005.009 15.061c.051.077.06.171.119.239.06.068.188.145.273.239a25.475 25.475 0 0020.173 10.061h460.8a25.482 25.482 0 0020.241-10.103c.068-.085.171-.111.23-.196.06-.085.068-.162.12-.239a25.317 25.317 0 005.009-15.061V196.237c-.001-.179-.094-.333-.103-.512zM250.854 18.82a8.182 8.182 0 0110.18 0l19.686 15.283h-49.493l19.627-15.283zM27.725 494.904l223.13-173.321a8.193 8.193 0 0110.18 0l223.189 173.321H27.725zM494.908 481.6L271.539 308.117a25.319 25.319 0 00-31.121 0L17.041 481.6V209.233L156.877 317.82a8.536 8.536 0 0011.977-1.515 8.536 8.536 0 00-1.515-11.977L25.276 194.018l60.032-46.652v65.937a8.533 8.533 0 0017.066 0v-153.6a8.533 8.533 0 018.533-8.533H401.04a8.533 8.533 0 018.533 8.533v153.6a8.533 8.533 0 0017.066 0v-65.937l60.032 46.652-142.31 110.507a8.533 8.533 0 1010.462 13.482l140.083-108.774V481.6z"/><path d="M358.374 204.77v-34.133c0-56.554-45.846-102.4-102.4-102.4-56.554 0-102.4 45.846-102.4 102.4s45.846 102.4 102.4 102.4c4.713 0 8.533-3.82 8.533-8.533s-3.82-8.533-8.533-8.533c-47.128 0-85.333-38.205-85.333-85.333s38.205-85.333 85.333-85.333 85.333 38.205 85.333 85.333v34.133c0 9.426-7.641 17.067-17.067 17.067s-17.067-7.641-17.067-17.067v-34.133c0-4.713-3.82-8.533-8.533-8.533s-8.533 3.82-8.533 8.533c0 18.851-15.282 34.133-34.133 34.133-18.851 0-34.133-15.282-34.133-34.133s15.282-34.133 34.133-34.133c4.713 0 8.533-3.82 8.533-8.533s-3.82-8.533-8.533-8.533c-22.915-.051-43.074 15.13-49.354 37.168-6.28 22.038 2.847 45.565 22.347 57.601 19.5 12.036 44.622 9.65 61.507-5.843 1.858 18.046 17.543 31.464 35.659 30.505 18.117-.96 32.298-15.958 32.241-34.1z"/></svg><svg viewBox="0 0 18 18" id="fullsize" xmlns="http://www.w3.org/2000/svg"><path data-name="Rounded Rectangle 95 copy" class="hcls-1" d="M17 7a1 1 0 01-1-1V3.435l-4.324 4.263a1 1 0 01-1.414-1.414L14.61 2H12a1 1 0 010-2h5a1 1 0 011 1v5a1 1 0 01-1 1zM3.381 16h2.6a1 1 0 110 2H1a1 1 0 01-1-1v-5a1 1 0 011.994 0v2.567l4.3-4.263a1 1 0 011.41 1.415z"/></svg><svg viewBox="0 0 128 128" id="location" xmlns="http://www.w3.org/2000/svg"><path d="M78.777 37.021A14.777 14.777 0 1064 51.8a14.795 14.795 0 0014.777-14.779zm-26.054 0A11.277 11.277 0 1164 48.3a11.29 11.29 0 01-11.277-11.279z"/><path d="M123.328 121.069l-14.266-37.4a1.751 1.751 0 00-1.635-1.126h-27c.165-.269.329-.53.494-.8 10.389-17.2 15.617-32.246 15.542-44.714a32.464 32.464 0 00-64.928-.011c-.075 12.479 5.153 27.527 15.542 44.725.165.273.329.534.494.8h-27a1.751 1.751 0 00-1.635 1.126l-14.264 37.4a1.748 1.748 0 001.635 2.374h115.386a1.748 1.748 0 001.635-2.374zM35.036 37.021a28.964 28.964 0 1157.928.01C93.114 61.889 69.874 92.548 64 99.9c-5.874-7.349-29.115-38-28.964-62.879zM62.667 103.8a1.75 1.75 0 002.666 0 185.716 185.716 0 0012.9-17.759h27.987l2.24 5.875-54.691 19.451-19.494-25.329h15.49A185.716 185.716 0 0062.667 103.8zm-8.959 11.3h.01l32.627-11.6L99 119.943H40.1zm-31.93-29.062h8.08L50.3 112.6l-20.643 7.342H8.847zm81.643 33.905l-13.609-17.682 19.9-7.077 9.443 24.759z"/></svg><svg fill="none" viewBox="0 0 60 60" id="man" xmlns="http://www.w3.org/2000/svg"><path d="M0 0h60v60H0z"/><path d="M29.758 4c-3.555 0-6.893.67-10.012 2.012-3.152 1.342-5.902 3.186-8.25 5.534-2.314 2.314-4.142 5.048-5.484 8.2C4.671 22.866 4 26.203 4 29.758c0 3.555.67 6.892 2.012 10.01 1.342 3.153 3.17 5.904 5.484 8.251 2.348 2.315 5.098 4.142 8.25 5.484 3.12 1.341 6.457 2.012 10.012 2.012 3.555 0 6.892-.67 10.01-2.012 3.153-1.342 5.887-3.17 8.201-5.484 2.348-2.347 4.192-5.098 5.534-8.25 1.341-3.12 2.012-6.456 2.012-10.011 0-3.555-.67-6.893-2.012-10.012-1.342-3.152-3.186-5.886-5.534-8.2-2.314-2.348-5.048-4.192-8.2-5.534C36.649 4.671 33.313 4 29.758 4zm.1 37.932H18.69c0-4.025 1.24-6.456 3.723-7.295 2.482-.872 4.108-1.827 4.88-2.867l.2-.956c-1.106-.57-2.012-1.476-2.716-2.717-.704-1.274-1.056-2.7-1.056-4.276 0-2.046.587-3.806 1.76-5.282 1.174-1.476 2.6-2.214 4.277-2.214s3.102.738 4.276 2.214 1.76 3.236 1.76 5.282c0 1.577-.352 2.985-1.056 4.226-.67 1.241-1.56 2.147-2.666 2.717l.201 1.107c.872 1.006 2.515 1.945 4.93 2.817 2.415.872 3.622 3.286 3.622 7.244H29.858z" fill="#FEDF07"/></svg><svg fill="none" viewBox="0 0 60 60" id="notebook" xmlns="http://www.w3.org/2000/svg"><path d="M0 0h60v60H0z"/><path d="M30.876 5.692h-1.16a1.01 1.01 0 01-.756-.312 1.269 1.269 0 01-.303-.834 2.6 2.6 0 00-.756-1.875c-.505-.52-1.11-.781-1.816-.781h-.05c-.707 0-1.312.26-1.816.781a2.6 2.6 0 00-.757 1.875c0 .313-.117.59-.353.834a1.01 1.01 0 01-.756.312h-1.16c-.572 0-1.076.226-1.514.678-.437.416-.655.937-.655 1.562v.052c0 .59.218 1.112.655 1.563.438.451.942.677 1.514.677h9.683c.606 0 1.11-.226 1.513-.677.438-.451.656-.972.656-1.563v-.052c0-.625-.218-1.146-.656-1.562a1.945 1.945 0 00-1.513-.678zm-4.841 0c-.303 0-.572-.104-.808-.312a1.269 1.269 0 01-.302-.834c0-.312.1-.573.302-.781.236-.208.505-.313.808-.313.268 0 .504.122.706.365.235.208.353.452.353.73 0 .312-.101.59-.303.833a1.01 1.01 0 01-.756.312zm4.942 44.225h-18.61c-.774 0-1.463-.295-2.069-.886a3.14 3.14 0 01-.857-2.188V10.276c0-.833.252-1.545.756-2.135.539-.626 1.026-.938 1.463-.938h6.002c-.034.139-.05.278-.05.417v.416c0 1.042.353 1.928 1.059 2.657.74.73 1.597 1.094 2.572 1.094h9.684c1.009 0 1.866-.365 2.572-1.094.74-.764 1.11-1.667 1.11-2.709 0-.139-.017-.26-.05-.364v-.417h4.488c1.177 0 2.068.312 2.673.938.64.59.959 1.302.959 2.135v22.868h-.354a1.085 1.085 0 00-.353-.052c-.504 0-1.008.034-1.513.104-.47.07-.941.174-1.412.312V15.59H13.224v30.473H30.22c0 .695.067 1.372.201 2.032.135.625.32 1.232.555 1.823zm10.945-14.481c-2.656 0-4.926.972-6.809 2.917-1.85 1.91-2.774 4.254-2.774 7.032 0 2.743.925 5.07 2.774 6.98 1.883 1.91 4.153 2.865 6.809 2.865 2.656 0 4.926-.972 6.809-2.917 1.883-1.91 2.824-4.237 2.824-6.98 0-2.778-.958-5.122-2.875-7.032-1.883-1.91-4.135-2.865-6.758-2.865zm6.254 7.865l-5.901 6.876c-.134.14-.303.26-.504.365a1.032 1.032 0 01-.555.156c-.168 0-.336-.017-.505-.052a1.956 1.956 0 01-.453-.26l-3.632-3.074a1.296 1.296 0 01-.555-.99 1.606 1.606 0 01.353-1.145c.236-.313.555-.487.959-.521.403-.035.756.07 1.059.312l2.623 2.136 4.942-5.73a1.45 1.45 0 011.009-.52c.437-.036.79.103 1.06.416.268.208.42.52.453.938.034.382-.084.746-.353 1.093zM35.264 28.56H23.462c-.235 0-.42-.07-.555-.208a.719.719 0 01-.201-.521v-.782c0-.208.067-.382.201-.52.135-.14.32-.209.555-.209h11.802c.202 0 .37.07.505.208a.719.719 0 01.202.521v.782a.719.719 0 01-.202.52.673.673 0 01-.505.209zm0-6.876H23.462c-.235 0-.42-.07-.555-.208a.719.719 0 01-.201-.521v-.782c0-.208.067-.382.201-.52.135-.14.32-.209.555-.209h11.802c.202 0 .37.07.505.209a.719.719 0 01.202.52v.782a.719.719 0 01-.202.52.673.673 0 01-.505.209zm-3.682 12.97h-8.12c-.235 0-.42-.069-.555-.208-.134-.139-.201-.33-.201-.573v-.73c0-.208.067-.381.201-.52.135-.139.32-.209.555-.209h8.07c.202 0 .37.07.504.209a.649.649 0 01.253.52v.73c0 .243-.068.434-.202.573a.673.673 0 01-.505.208zM30.12 41.53h-6.658c-.235 0-.42-.07-.555-.208-.134-.139-.201-.33-.201-.573v-.73c0-.208.067-.381.201-.52.135-.14.32-.209.555-.209h6.658c.202 0 .37.07.504.209a.719.719 0 01.202.52v.73c0 .208-.067.4-.202.573a.673.673 0 01-.504.208zm-8.776-22.607L18.57 22.05a.628.628 0 01-.252.156.546.546 0 01-.253.052h-.252a.336.336 0 01-.151-.156l-1.715-1.407a.618.618 0 01-.302-.416c0-.209.067-.382.201-.521.135-.174.286-.26.454-.26.202-.035.353.017.454.155l1.21.938 2.27-2.657a.618.618 0 01.454-.208.535.535 0 01.505.156.649.649 0 01.252.521.735.735 0 01-.101.521zm0 6.772L18.57 28.82a.628.628 0 01-.252.157.546.546 0 01-.253.052h-.252a.336.336 0 01-.151-.157l-1.715-1.354a.81.81 0 01-.302-.469c0-.208.067-.382.201-.52.135-.174.286-.261.454-.261.202-.035.353.017.454.156l1.21.938 2.27-2.657a.618.618 0 01.454-.208.535.535 0 01.505.156.649.649 0 01.252.521.734.734 0 01-.101.52zm0 6.46l-2.774 3.124a.63.63 0 01-.252.157.546.546 0 01-.253.052h-.252a.336.336 0 01-.151-.156l-1.715-1.407a.618.618 0 01-.302-.417.72.72 0 01.201-.52c.135-.174.286-.26.454-.26.202-.036.353.016.454.155l1.21.938 2.27-2.657a.618.618 0 01.454-.208.535.535 0 01.505.156.649.649 0 01.252.521c.033.209 0 .382-.101.521zm0 6.562l-2.774 3.126a.628.628 0 01-.252.156.546.546 0 01-.253.052h-.252a.336.336 0 01-.151-.156l-1.715-1.407a.618.618 0 01-.302-.416c0-.209.067-.382.201-.521.135-.174.286-.26.454-.26.202-.035.353.017.454.156l1.21.937 2.27-2.656a.618.618 0 01.454-.209.535.535 0 01.505.157.649.649 0 01.252.52.734.734 0 01-.101.521z" fill="#FEDF07"/></svg><svg viewBox="0 0 512 512" id="phone" xmlns="http://www.w3.org/2000/svg"><path d="M366 0H146c-20.678 0-37.5 16.822-37.5 37.5v437c0 20.678 16.822 37.5 37.5 37.5h220c20.678 0 37.5-16.822 37.5-37.5v-437C403.5 16.822 386.678 0 366 0zm22.5 407H176a7.5 7.5 0 000 15h212.5v52.5c0 12.407-10.093 22.5-22.5 22.5H146c-12.407 0-22.5-10.093-22.5-22.5V422H146a7.5 7.5 0 000-15h-22.5V75h265v332zm0-347h-265V37.5c0-12.407 10.093-22.5 22.5-22.5h220c12.407 0 22.5 10.093 22.5 22.5V60z"/><path d="M286 30h-30a7.5 7.5 0 000 15h30a7.5 7.5 0 000-15zM256 437c-12.407 0-22.5 10.093-22.5 22.5S243.593 482 256 482s22.5-10.093 22.5-22.5S268.407 437 256 437zm0 30c-4.136 0-7.5-3.364-7.5-7.5s3.364-7.5 7.5-7.5 7.5 3.364 7.5 7.5-3.364 7.5-7.5 7.5z"/><circle cx="226" cy="37.5" r="7.5"/></svg><svg viewBox="0 0 512 512" id="quality" xmlns="http://www.w3.org/2000/svg"><path d="M419.337 457.107h.01zM256 47.294c-41.962 0-81.272 16.485-110.702 46.433l-.441.451a7.484 7.484 0 0010.703 10.461l.426-.436C182.566 77.155 218.085 62.26 256 62.26c77.314 0 140.214 62.899 140.214 140.214S333.314 342.688 256 342.688s-140.214-62.9-140.214-140.214c0-25.258 6.788-50.015 19.63-71.595a7.483 7.483 0 00-12.861-7.653c-14.219 23.894-21.735 51.298-21.735 79.249 0 85.566 69.613 155.18 155.179 155.18s155.179-69.614 155.179-155.18S341.566 47.294 256 47.294z"/><path d="M445.534 171.332c-4.06-6.045-7.894-11.755-9.335-17.144-1.537-5.751-1.078-12.836-.591-20.337.726-11.189 1.477-22.76-4.239-32.638-5.804-10.032-16.289-15.181-26.429-20.161-6.667-3.274-12.965-6.367-17.058-10.46-4.093-4.094-7.186-10.391-10.461-17.059-4.979-10.139-10.128-20.624-20.161-26.428-9.878-5.715-21.448-4.964-32.638-4.239-7.501.487-14.585.947-20.338-.591-5.389-1.441-11.099-5.275-17.144-9.335C278.111 6.875 267.874 0 256 0s-22.111 6.875-31.143 12.941c-6.045 4.06-11.754 7.894-17.143 9.334-5.751 1.538-12.836 1.078-20.337.591-11.19-.725-22.759-1.476-32.638 4.239-10.032 5.804-15.181 16.289-20.161 26.428-3.274 6.668-6.367 12.966-10.461 17.059-4.093 4.093-10.39 7.186-17.058 10.46-10.14 4.979-20.624 10.129-26.429 20.161-5.716 9.878-4.965 21.449-4.239 32.639.487 7.5.946 14.585-.591 20.336-1.441 5.389-5.275 11.099-9.335 17.144-6.065 9.032-12.94 19.268-12.94 31.142s6.874 22.111 12.94 31.143c4.059 6.045 7.894 11.755 9.334 17.144 1.537 5.751 1.078 12.836.591 20.337-.726 11.189-1.477 22.759 4.239 32.638 5.804 10.032 16.289 15.182 26.429 20.161 6.667 3.274 12.965 6.367 17.058 10.46 3.795 3.795 6.731 9.491 9.748 15.613l-54.351 99.99c-2.332 4.29-2.265 9.375.18 13.601 2.445 4.227 6.818 6.82 11.699 6.938l41.681 1.009 23.515 34.429c2.617 3.832 6.861 6.063 11.461 6.063.24 0 .482-.006.724-.018 4.876-.247 9.179-2.956 11.511-7.246l57.07-104.991c5.744 3.006 11.932 5.204 18.645 5.204 6.712 0 12.901-2.198 18.645-5.204l57.07 104.992c2.332 4.29 6.635 6.999 11.511 7.246.243.012.484.018.724.018 4.6 0 8.844-2.231 11.461-6.063l23.515-34.429 41.68-1.009c4.881-.118 9.255-2.712 11.699-6.938 2.445-4.227 2.512-9.311.18-13.601l-19.875-36.565a7.48 7.48 0 00-10.148-3.001 7.484 7.484 0 00-3.001 10.148l19.045 35.037-40.488.98a13.934 13.934 0 00-11.144 6.058l-22.842 33.443-56.648-104.216c5.955-3.999 11.585-7.751 16.901-9.172 5.751-1.537 12.836-1.078 20.337-.591 11.191.726 22.76 1.477 32.638-4.239 5.229-3.025 9.125-7.327 12.368-12.184l13.369 24.596a7.482 7.482 0 1013.149-7.147l-18.013-33.139c3.017-6.122 5.953-11.817 9.748-15.612 4.093-4.093 10.39-7.186 17.058-10.46 10.14-4.979 20.624-10.129 26.429-20.161 5.716-9.878 4.965-21.449 4.239-32.639-.487-7.5-.946-14.585.591-20.337 1.441-5.389 5.275-11.098 9.334-17.143 6.065-9.032 12.94-19.269 12.94-31.143.003-11.874-6.872-22.111-12.937-31.142zM167.967 496.061l-22.841-33.442a13.937 13.937 0 00-11.145-6.058l-40.487-.98 48.877-89.92c3.243 4.856 7.139 9.158 12.368 12.183 9.879 5.715 21.451 4.965 32.638 4.239 7.501-.487 14.586-.946 20.337.591 5.317 1.421 10.947 5.174 16.901 9.172zm265.142-270.788c-4.564 6.797-9.284 13.825-11.368 21.623-2.173 8.128-1.611 16.792-1.067 25.17.608 9.374 1.182 18.228-2.259 24.175-3.528 6.097-11.564 10.044-20.072 14.223-7.47 3.668-15.194 7.461-21.043 13.311-5.85 5.849-9.643 13.574-13.312 21.044-4.178 8.508-8.125 16.543-14.221 20.071-5.948 3.441-14.8 2.866-24.175 2.259-8.379-.544-17.042-1.105-25.17 1.067-7.797 2.085-14.825 6.804-21.622 11.369-7.963 5.348-15.484 10.399-22.8 10.399-7.315 0-14.836-5.051-22.799-10.399-6.797-4.564-13.824-9.284-21.623-11.369-4.462-1.193-9.084-1.561-13.733-1.561-3.82 0-7.658.249-11.437.495-9.375.607-18.228 1.183-24.175-2.259-6.097-3.528-10.044-11.564-14.222-20.072-3.668-7.47-7.462-15.194-13.312-21.044-5.849-5.849-13.573-9.643-21.043-13.311-8.508-4.178-16.544-8.125-20.072-14.223-3.441-5.947-2.867-14.801-2.259-24.174.544-8.378 1.106-17.042-1.067-25.17-2.084-7.798-6.804-14.827-11.369-21.623-5.347-7.963-10.398-15.484-10.398-22.799s5.051-14.836 10.398-22.799c4.565-6.797 9.284-13.825 11.369-21.623 2.173-8.128 1.611-16.792 1.067-25.17-.608-9.374-1.182-18.228 2.259-24.175 3.528-6.097 11.564-10.044 20.072-14.223 7.47-3.668 15.194-7.462 21.043-13.311s9.643-13.574 13.312-21.044c4.178-8.507 8.125-16.543 14.222-20.071 5.947-3.44 14.8-2.866 24.175-2.259 8.378.544 17.041 1.106 25.17-1.067 7.797-2.085 14.825-6.804 21.622-11.369 7.963-5.348 15.484-10.399 22.8-10.399 7.315 0 14.836 5.051 22.799 10.398 6.797 4.565 13.825 9.285 21.623 11.369 8.128 2.173 16.793 1.611 25.171 1.067 9.374-.607 18.228-1.182 24.174 2.259 6.097 3.528 10.044 11.564 14.222 20.071 3.668 7.47 7.462 15.194 13.312 21.044 5.849 5.849 13.574 9.643 21.043 13.311 8.508 4.178 16.543 8.125 20.071 14.222 3.441 5.947 2.867 14.801 2.259 24.174-.544 8.378-1.106 17.042 1.067 25.17 2.084 7.798 6.804 14.827 11.369 21.623 5.347 7.963 10.398 15.484 10.398 22.799 0 7.317-5.051 14.838-10.399 22.801z"/><path d="M358.759 195.463c5.056-4.929 6.841-12.162 4.659-18.877s-7.878-11.518-14.865-12.533l-50.748-7.374a3.447 3.447 0 01-2.597-1.887l-22.695-45.985c-3.125-6.332-9.453-10.265-16.513-10.265s-13.388 3.933-16.513 10.265l-22.695 45.985a3.447 3.447 0 01-2.597 1.887l-50.747 7.374c-6.987 1.015-12.684 5.817-14.866 12.533-2.182 6.715-.397 13.948 4.66 18.877l36.721 35.794a3.446 3.446 0 01.992 3.053l-8.669 50.543c-1.194 6.96 1.614 13.861 7.326 18.011 3.228 2.345 7.004 3.536 10.806 3.536 2.926 0 5.868-.706 8.587-2.135l45.389-23.863a3.45 3.45 0 013.21 0l45.39 23.863c6.249 3.285 13.68 2.748 19.393-1.401 5.713-4.15 8.52-11.052 7.326-18.011l-8.669-50.543a3.449 3.449 0 01.991-3.052zm-52.464 41.377l8.669 50.543c.327 1.907-.851 2.994-1.372 3.373-.522.379-1.919 1.162-3.632.262l-45.391-23.863a18.413 18.413 0 00-17.138 0l-45.39 23.864c-1.711.9-3.11.116-3.632-.263-.521-.379-1.699-1.466-1.372-3.373l8.669-50.542a18.411 18.411 0 00-5.296-16.3l-36.721-35.794c-1.386-1.351-1.072-2.923-.873-3.535.199-.613.869-2.069 2.784-2.347l50.748-7.374a18.412 18.412 0 0013.865-10.073l22.695-45.985c.856-1.735 2.448-1.922 3.093-1.922s2.236.187 3.093 1.922l22.695 45.985a18.41 18.41 0 0013.865 10.073l50.748 7.374c1.915.278 2.584 1.734 2.784 2.347.199.613.513 2.185-.872 3.535l-36.723 35.795a18.407 18.407 0 00-5.296 16.298z"/></svg><svg viewBox="0 0 512 512" id="reputation" xmlns="http://www.w3.org/2000/svg"><path d="M485.317 306.719C502.025 295.219 512 276.258 512 256s-9.975-39.219-26.682-50.719a15.898 15.898 0 01-5.363-20.016A61.574 61.574 0 00477.703 128a61.581 61.581 0 00-48.467-30.583 15.897 15.897 0 01-14.652-14.653c-1.609-20.22-13.042-38.338-30.584-48.467-17.545-10.13-38.953-10.97-57.264-2.252a15.896 15.896 0 01-20.016-5.363C295.219 9.975 276.257 0 256 0s-39.219 9.975-50.719 26.682a15.9 15.9 0 01-20.016 5.363c-18.312-8.717-39.719-7.877-57.264 2.252-17.543 10.128-28.976 28.246-30.583 48.468a15.898 15.898 0 01-14.652 14.652c-20.22 1.607-38.339 13.04-48.469 30.583-10.129 17.544-10.97 38.952-2.252 57.265a15.9 15.9 0 01-5.362 20.016C9.975 216.781 0 235.742 0 256s9.975 39.219 26.682 50.719a15.898 15.898 0 015.363 20.016A61.574 61.574 0 0034.297 384c10.13 17.544 28.248 28.976 48.467 30.583a15.897 15.897 0 0114.652 14.653c1.608 20.221 13.041 38.339 30.583 48.466 17.543 10.13 38.952 10.971 57.264 2.252 7.126-3.39 15.542-1.136 20.016 5.363C216.781 502.025 235.743 512 256 512s39.219-9.975 50.719-26.682a15.9 15.9 0 0120.016-5.363 62.211 62.211 0 0025.926 5.998h.078c4.097 0 7.439-3.3 7.48-7.407a7.482 7.482 0 00-7.406-7.557 47.125 47.125 0 01-19.645-4.545c-13.8-6.572-30.108-2.201-38.775 10.39-8.708 12.65-23.06 20.203-38.392 20.203s-29.684-7.553-38.392-20.203c-8.666-12.59-24.973-16.961-38.775-10.39a46.606 46.606 0 01-43.349-1.701 46.613 46.613 0 01-23.148-36.691c-1.21-15.237-13.147-27.176-28.386-28.387-15.309-1.216-29.026-9.869-36.692-23.147s-8.301-29.484-1.7-43.35c6.571-13.801 2.201-30.109-10.39-38.775-12.65-8.707-20.203-23.06-20.203-38.392s7.553-29.685 20.204-38.392c12.59-8.666 16.959-24.974 10.389-38.775a46.617 46.617 0 011.7-43.35 46.613 46.613 0 0136.692-23.147c15.238-1.21 27.176-13.148 28.386-28.385 1.217-15.31 9.87-29.027 23.148-36.693a46.611 46.611 0 0143.349-1.7c13.803 6.571 30.109 2.2 38.775-10.39 8.708-12.65 23.06-20.203 38.392-20.203s29.684 7.553 38.392 20.203c8.666 12.589 24.973 16.961 38.775 10.39a46.611 46.611 0 0143.349 1.7 46.616 46.616 0 0123.148 36.692c1.21 15.237 13.148 27.176 28.386 28.386a46.614 46.614 0 0136.692 23.147 46.614 46.614 0 011.7 43.35c-6.571 13.801-2.201 30.109 10.39 38.775 12.65 8.707 20.203 23.06 20.203 38.392s-7.553 29.685-20.204 38.392c-12.59 8.666-16.959 24.974-10.389 38.775a46.617 46.617 0 01-1.7 43.35 46.613 46.613 0 01-36.692 23.147c-15.239 1.211-27.176 13.149-28.386 28.386-1.065 13.405-7.824 25.675-18.544 33.664a7.482 7.482 0 108.942 11.999c14.176-10.565 23.114-26.776 24.521-44.479a15.898 15.898 0 0114.652-14.652c20.219-1.606 38.338-13.039 48.467-30.583s10.97-38.952 2.252-57.265a15.898 15.898 0 015.362-20.016z"/><path d="M103.045 274.672a7.482 7.482 0 00-7.482 7.483v65.929c0 5.578 4.538 10.116 10.116 10.116h66.636l17.192 10.176a157.515 157.515 0 0080.182 21.95h83.794c17.472 0 31.687-14.215 31.687-31.686a31.504 31.504 0 00-5.535-17.874c13.366-3.718 23.202-15.998 23.202-30.533a31.524 31.524 0 00-6.33-18.982c11.669-4.678 19.931-16.106 19.931-29.426 0-13.314-8.254-24.736-19.913-29.419 4.338-5.768 6.553-12.786 6.292-20.138-.599-16.838-15.065-30.537-32.247-30.537h-56.005a5.466 5.466 0 01-4.484-2.301 5.368 5.368 0 01-.749-4.89c2.999-8.948 5.029-17.579 6.036-25.656a50.961 50.961 0 00-12.385-40.01 51.212 51.212 0 00-38.366-17.303c-9.214 0-17.473 5.509-21.04 14.035.001.001-.001 0-.001.002a22.906 22.906 0 00-1.78 8.892c-.004 35.615-11.522 63.688-34.232 83.438-15.599 13.566-31.493 18.455-34.289 19.24h-67.594c-5.578 0-10.116 4.538-10.116 10.115v20.359c0 4.132 3.349 7.482 7.482 7.482s7.482-3.35 7.482-7.482v-15.51h56.58v111.092h-56.58v-61.08a7.484 7.484 0 00-7.484-7.482zm79.028-44.611c7.445-2.654 21.087-8.631 34.728-20.329 18.225-15.63 39.952-44.84 39.958-95.232 0-1.085.208-2.134.62-3.115l.001-.002c1.232-2.945 4.072-4.849 7.236-4.849a36.243 36.243 0 0127.15 12.244 35.992 35.992 0 018.751 28.255c-.884 7.09-2.692 14.744-5.375 22.75-2.107 6.29-1.09 12.991 2.792 18.386a20.537 20.537 0 0016.63 8.525h56.005c9.219 0 16.976 7.224 17.292 16.104.163 4.591-1.499 8.934-4.677 12.228a16.584 16.584 0 01-12.033 5.111h-20.786a7.482 7.482 0 00-7.482 7.483 7.482 7.482 0 007.482 7.482h34.387c9.22 0 16.721 7.501 16.721 16.721s-7.501 16.721-16.721 16.721h-44.825c-4.133 0-7.482 3.35-7.482 7.483s3.349 7.482 7.482 7.482h31.224c9.221 0 16.722 7.501 16.722 16.722 0 9.22-7.501 16.721-16.722 16.721h-37.472a7.482 7.482 0 000 14.965h19.804c9.221 0 16.722 7.501 16.722 16.721s-7.501 16.721-16.722 16.721h-83.794a142.547 142.547 0 01-72.559-19.863l-15.057-8.912V230.061z"/></svg><svg fill="none" viewBox="0 0 60 60" id="scalepan" xmlns="http://www.w3.org/2000/svg"><path d="M0 0h60v60H0z"/><path d="M4 41.09h2.012c.168 0 .285-.018.352-.051a1.08 1.08 0 00.202-.352c.503-1.51 1.006-3.036 1.509-4.578l1.51-4.629a372.795 372.795 0 001.559-4.578 250.21 250.21 0 011.56-4.628v-.05c.234-.336.318-.671.25-1.006a7.281 7.281 0 00-.301-1.057 1.96 1.96 0 01-.05-1.157c.1-.369.318-.688.654-.956.47-.402.888-.604 1.257-.604.37-.033.805.05 1.308.252.1.034.202.05.302.05.134 0 .235-.033.302-.1a90.456 90.456 0 001.861-1.51c.638-.503 1.292-.989 1.962-1.458a7.315 7.315 0 012.566-1.258c.906-.268 1.861-.319 2.868-.151a.447.447 0 00.2-.05c.102-.034.169-.084.202-.151.403-.638.906-1.124 1.51-1.46a4.157 4.157 0 012.012-.603c.738-.034 1.408.1 2.012.402a4.79 4.79 0 011.66 1.309c.134.2.252.352.352.452.134.067.336.084.604.05 1.04-.134 1.995-.033 2.867.302.906.302 1.761.755 2.566 1.359.537.402 1.057.821 1.56 1.257.503.403 1.023.822 1.56 1.258.167.134.335.252.502.352.202.067.436.034.705-.1a2.05 2.05 0 011.408-.101c.47.1.839.319 1.107.654.302.369.47.822.503 1.358.034.503-.084.94-.352 1.308-.067.067-.1.168-.1.302 0 .1.016.201.05.302a593.496 593.496 0 012.364 7.144l2.415 7.144c.268.838.536 1.66.805 2.465.302.804.57 1.626.805 2.465.067.167.134.285.201.352.067.033.184.05.352.05H55.616a11.27 11.27 0 01-.855 2.314 14.367 14.367 0 01-1.208 2.063 12.075 12.075 0 01-2.666 2.566c-.973.67-2.08 1.14-3.32 1.408-1.71.37-3.304.42-4.78.151-1.475-.268-2.8-.771-3.974-1.51a10.977 10.977 0 01-2.918-2.917c-.838-1.207-1.459-2.566-1.861-4.075h2.415l2.112-6.238c.705-2.113 1.41-4.21 2.113-6.289.37-1.14.738-2.297 1.107-3.47l1.208-3.522c.033-.067.067-.151.1-.252.034-.1.034-.184 0-.251a10.166 10.166 0 01-.201-.554.803.803 0 00-.352-.453 54.944 54.944 0 00-2.163-1.76 94.942 94.942 0 00-2.214-1.66 6.54 6.54 0 00-1.56-.906 3.83 3.83 0 00-1.76-.302h-.352a.387.387 0 00-.151.05l-.202.101a4.322 4.322 0 01-.452 1.71 4.038 4.038 0 01-1.057 1.359 3.851 3.851 0 01-1.61.905 5.398 5.398 0 01-1.81.101c-.906-.1-1.728-.486-2.466-1.157-.738-.704-1.174-1.694-1.308-2.968-.604-.168-1.174-.185-1.71-.05a3.77 3.77 0 00-1.51.653c-.603.403-1.19.839-1.76 1.308-.57.47-1.157.923-1.761 1.359a5.496 5.496 0 01-.453.402c-.134.1-.285.201-.453.302a2.232 2.232 0 00-.805.654 2.32 2.32 0 00-.452.855.447.447 0 00-.05.202c0 .067.016.134.05.2.536 1.644 1.073 3.27 1.61 4.88.57 1.644 1.123 3.287 1.66 4.93.536 1.644 1.09 3.288 1.66 4.93.536 1.61 1.073 3.237 1.61 4.88.033 0 .067.018.1.051h2.415c-.268.906-.604 1.76-1.006 2.566-.403.805-.889 1.56-1.459 2.264a12.008 12.008 0 01-2.364 2.163c-.872.57-1.828.99-2.868 1.258-.771.2-1.526.335-2.264.402-.738.034-1.492 0-2.264-.1-.872-.101-1.727-.286-2.566-.554a7.777 7.777 0 01-2.263-1.207 7.606 7.606 0 01-1.157-.956l-1.007-1.107a9.37 9.37 0 01-1.408-2.063A45.83 45.83 0 014 41.491v-.2-.202zm10.766-17.86a693.337 693.337 0 01-1.51 4.477 701.652 701.652 0 00-1.509 4.478c-.47 1.475-.956 2.951-1.458 4.427-.504 1.475-.99 2.951-1.46 4.427H20.703a226.96 226.96 0 01-1.459-4.427l-1.509-4.427c-.503-1.51-.99-3.002-1.459-4.478a687.3 687.3 0 01-1.51-4.477zm36.02 17.809l-1.509-4.427-1.51-4.427c-.469-1.51-.955-3.002-1.458-4.478a699.545 699.545 0 01-1.51-4.477c-.502 1.51-.989 3.002-1.458 4.477a695.406 695.406 0 00-1.51 4.478c-.503 1.475-.989 2.951-1.459 4.427l-1.509 4.427h11.923z" fill="#FEDF07"/></svg><svg viewBox="0 0 487.316 487.316" id="solution" xmlns="http://www.w3.org/2000/svg"><path d="M347.658 0h-288c-30.911.04-55.96 25.089-56 56v287.336c.04 30.911 25.089 55.96 56 56h88v-16h-88c-22.08-.026-39.974-17.92-40-40V208h51.376a8.608 8.608 0 007.328-11.872c-7.11-16.18.242-35.06 16.422-42.17 16.18-7.11 35.06.242 42.17 16.422a32.002 32.002 0 010 25.748 8.296 8.296 0 007.328 11.873h51.376v48a46.826 46.826 0 00-8-.664c-26.51-.009-48.007 21.474-48.017 47.983a48 48 0 0028.817 44.017l6.4-14.656c-16.206-7.05-23.629-25.902-16.58-42.108a32 32 0 0129.38-19.236 31.61 31.61 0 0112.8 2.704 8 8 0 0011.2-7.328V208h40.68a46.833 46.833 0 00-.68 8c.048 22.794 16.077 42.43 38.4 47.04l3.2-15.672c-14.882-3.079-25.567-16.171-25.6-31.368a31.61 31.61 0 012.704-12.8 8 8 0 00-7.328-11.2h-51.376v-40.68c2.642.455 5.319.683 8 .68 26.51 0 48-21.49 48-48s-21.49-48-48-48a46.833 46.833 0 00-8 .68V16h136c22.08.026 39.974 17.92 40 40v136h-51.376a8 8 0 00-7.328 11.2 31.61 31.61 0 012.704 12.8h16a46.833 46.833 0 00-.68-8h48.68a8 8 0 008-8V56c-.04-30.911-25.089-55.96-56-56zm-128 72c17.673 0 32 14.327 32 32s-14.327 32-32 32a31.61 31.61 0 01-12.8-2.704 8 8 0 00-11.2 7.328v50.712h-40.624c.401-2.425.609-4.878.624-7.336v-.416-.248c0-26.51-21.49-48-48-48s-48 21.49-48 48V184c.015 2.458.223 4.911.624 7.336H19.658V56c.026-22.08 17.92-39.974 40-40h136v51.376a8 8 0 0011.2 7.328 31.61 31.61 0 0112.8-2.704z"/><path d="M466.546 343.856l-67.256-46.312-25.832-69.016A8 8 0 00362.73 224l-52 23a8 8 0 00-4.24 10.176c.864 2.24 1.672 3.936 2.528 5.696s1.648 3.408 2.616 6.008c6.21 16.593-2.151 35.087-18.712 41.384-16.553 6.191-34.991-2.208-41.183-18.762a31.994 31.994 0 01-1.977-13.006 8 8 0 00-10.816-7.904l-55.584 20.936a8 8 0 00-4.672 10.288l19.952 53.304a45.09 45.09 0 00-7.76 2.144c-24.895 9.277-37.555 36.979-28.278 61.874 9.277 24.895 36.979 37.555 61.874 28.278a48.024 48.024 0 007.404-3.504l14.304 38.208a8 8 0 0010.298 4.685l.014-.005 79.264-29.864a42.96 42.96 0 0025.336 22.624l5.056-15.2a26.976 26.976 0 01-15.296-13.072l24.12-9.08c7.923 22.285 29.029 37.159 52.68 37.128v-16c-22.035-.135-39.865-17.965-40-40a8 8 0 00-2.344-5.656l-27.856-27.856a11.864 11.864 0 01-1.096-15.432 11.647 11.647 0 018.6-4.688c3.421-.288 6.79.972 9.184 3.432l55.856 55.856 11.312-11.312-16.528-16.528a55.808 55.808 0 00-.712-37.4l-14.992-40.04L457.426 357a24.049 24.049 0 0110.232 19.664V480h16V376.664a40.07 40.07 0 00-17.112-32.808zM409.09 369.36a40.092 40.092 0 012.336 18.424l-25.968-25.96c-10.719-10.993-28.319-11.214-39.312-.496-10.993 10.719-11.214 28.319-.496 39.312.163.167.328.333.496.496l25.304 25.304-113.056 42.584-15.248-40.744a8 8 0 00-7.488-5.192 8.002 8.002 0 00-5.6 2.28c-12.846 12.137-33.1 11.562-45.237-1.285-12.137-12.846-11.562-33.1 1.285-45.237a32.005 32.005 0 0110.448-6.591 30.787 30.787 0 017.912-1.792 28.405 28.405 0 015.016-.168 8 8 0 007.912-10.792l-20.896-55.792 38.096-14.344c5 26.034 30.158 43.085 56.192 38.086a47.962 47.962 0 007.808-2.198c24.807-9.412 37.346-37.099 28.056-61.952a71.236 71.236 0 00-2.04-4.92l36.8-16.296 47.68 127.273z"/></svg><svg viewBox="0 0 480 480" id="user" xmlns="http://www.w3.org/2000/svg"><path d="M240 0C107.664 0 0 107.664 0 240c0 57.96 20.656 111.184 54.992 152.704.088.12.096.272.192.384 24.792 29.896 55.928 52.816 90.624 67.624.4.168.792.352 1.192.52 2.808 1.184 5.648 2.28 8.496 3.352 1.12.424 2.24.856 3.376 1.264 2.456.88 4.928 1.712 7.416 2.512 1.592.512 3.184 1.016 4.792 1.496 2.2.656 4.408 1.288 6.632 1.888 1.952.528 3.92 1.016 5.888 1.488 1.992.48 3.992.96 6 1.384 2.24.48 4.504.904 6.776 1.32 1.824.336 3.64.688 5.48.984 2.52.408 5.056.728 7.6 1.056 1.64.208 3.272.448 4.92.624 2.88.304 5.784.52 8.696.72 1.352.096 2.696.24 4.056.312 4.248.24 8.544.368 12.872.368s8.624-.128 12.888-.352c1.36-.072 2.704-.216 4.056-.312 2.912-.208 5.816-.416 8.696-.72 1.648-.176 3.28-.416 4.92-.624 2.544-.328 5.08-.648 7.6-1.056 1.832-.296 3.656-.648 5.48-.984 2.264-.416 4.528-.84 6.776-1.32 2.008-.432 4-.904 6-1.384 1.968-.48 3.936-.968 5.888-1.488a232.661 232.661 0 0011.424-3.384c2.488-.8 4.96-1.632 7.416-2.512 1.128-.408 2.248-.84 3.376-1.264a243.168 243.168 0 008.496-3.352c.4-.168.792-.352 1.192-.52a239.997 239.997 0 0090.624-67.624c.096-.112.104-.272.192-.384C459.344 351.184 480 297.96 480 240 480 107.664 372.336 0 240 0zm97.256 441.76c-.12.056-.232.12-.352.176-2.856 1.376-5.76 2.672-8.688 3.936-.664.28-1.32.568-1.984.848a217.023 217.023 0 01-7.76 3.064 159.85 159.85 0 01-3.272 1.192 230.572 230.572 0 01-6.976 2.368c-1.456.464-2.92.904-4.384 1.336a202.08 202.08 0 01-6.28 1.784c-1.776.472-3.568.904-5.36 1.328-1.88.448-3.752.904-5.648 1.304-2.072.44-4.16.816-6.24 1.192-1.688.312-3.368.64-5.072.912-2.344.368-4.712.664-7.072.96-1.496.192-2.984.416-4.496.576-2.696.288-5.416.472-8.128.664-1.208.08-2.408.216-3.632.28-3.96.208-7.928.32-11.912.32s-7.952-.112-11.904-.32c-1.216-.064-2.416-.192-3.632-.28-2.72-.184-5.432-.376-8.128-.664-1.512-.16-3-.384-4.496-.576-2.36-.296-4.728-.592-7.072-.96-1.704-.272-3.384-.6-5.072-.912-2.088-.376-4.176-.76-6.24-1.192-1.896-.4-3.776-.856-5.648-1.304-1.792-.432-3.584-.856-5.36-1.328-2.104-.56-4.2-1.168-6.28-1.784a212.543 212.543 0 01-4.384-1.336 223.256 223.256 0 01-6.976-2.368 217.023 217.023 0 01-11.032-4.256c-.664-.272-1.312-.56-1.976-.84a223.812 223.812 0 01-8.696-3.936 7.216 7.216 0 01-.352-.176c-27.912-13.504-52.568-32.672-72.576-55.952 15.464-56.944 59.24-102.848 115.56-121.112 1.112.68 2.272 1.288 3.416 1.928.672.376 1.336.776 2.016 1.136a99.592 99.592 0 007.272 3.512c1.896.832 3.856 1.536 5.808 2.256.384.136.768.288 1.152.424 10.848 3.84 22.456 6.04 34.6 6.04s23.752-2.2 34.592-6.04c.384-.136.768-.288 1.152-.424 1.952-.72 3.912-1.424 5.808-2.256a99.592 99.592 0 007.272-3.512c.68-.368 1.344-.76 2.016-1.136 1.144-.64 2.312-1.248 3.432-1.936 56.32 18.272 100.088 64.176 115.56 121.112-20.008 23.272-44.664 42.44-72.576 55.952zM152 176c0-48.52 39.48-88 88-88s88 39.48 88 88c0 30.864-16.008 58.024-40.128 73.736a84.742 84.742 0 01-9.8 5.48c-.4.192-.792.392-1.192.576-23.168 10.536-50.592 10.536-73.76 0-.4-.184-.8-.384-1.192-.576a84.083 84.083 0 01-9.8-5.48C168.008 234.024 152 206.864 152 176zm269.832 194.584c-18.136-53.552-59.512-96.832-112.376-117.392C330.6 234.144 344 206.64 344 176c0-57.344-46.656-104-104-104s-104 46.656-104 104c0 30.64 13.4 58.144 34.552 77.192-52.864 20.568-94.24 63.84-112.376 117.392C31.672 333.792 16 288.704 16 240 16 116.488 116.488 16 240 16s224 100.488 224 224c0 48.704-15.672 93.792-42.168 130.584z"/></svg><svg fill="none" viewBox="0 0 60 60" id="year" xmlns="http://www.w3.org/2000/svg"><path d="M0 0h60v60H0z"/><path d="M20.827 4.702v32.18H13.38V10.678H6.944V4.702h13.883zM40.209 37.434c-2.667 0-5.042-.66-7.126-1.977-2.084-1.318-3.724-3.218-4.919-5.7-1.165-2.514-1.747-5.502-1.747-8.965s.582-6.436 1.747-8.918C29.36 9.36 31 7.445 33.083 6.127c2.084-1.318 4.46-1.977 7.126-1.977 2.666 0 5.041.66 7.125 1.977 2.084 1.318 3.708 3.233 4.873 5.747C53.402 14.356 54 17.329 54 20.792c0 3.463-.598 6.451-1.793 8.964-1.165 2.483-2.789 4.383-4.873 5.7-2.084 1.319-4.459 1.978-7.125 1.978zm0-6.298c1.961 0 3.493-.843 4.597-2.529 1.134-1.685 1.7-4.29 1.7-7.815 0-3.524-.566-6.13-1.7-7.815-1.104-1.686-2.636-2.529-4.597-2.529-1.931 0-3.464.843-4.598 2.529-1.103 1.685-1.654 4.29-1.654 7.815 0 3.524.551 6.13 1.654 7.815 1.134 1.686 2.667 2.529 4.598 2.529zM24.302 44.37v11.607h-3.366v-8.845H17.27l-.108 2.05c-.058 1.524-.202 2.79-.432 3.796-.23 1.007-.604 1.798-1.121 2.373-.518.576-1.237.863-2.158.863-.489 0-1.071-.086-1.747-.259l.172-2.761c.23.029.396.043.496.043.504 0 .878-.18 1.122-.54.26-.373.432-.84.518-1.402.086-.575.151-1.33.194-2.265l.173-4.66h9.924zM38.821 50.217c0 .043-.021.345-.065.906h-8.78c.158.719.532 1.287 1.122 1.704.59.417 1.323.626 2.2.626.604 0 1.136-.086 1.597-.259a4.011 4.011 0 001.316-.863L38 54.273c-1.093 1.25-2.69 1.877-4.789 1.877-1.309 0-2.467-.252-3.473-.755-1.007-.518-1.784-1.23-2.33-2.136-.547-.906-.82-1.935-.82-3.085 0-1.137.266-2.158.798-3.064a5.665 5.665 0 012.222-2.136c.95-.517 2.007-.776 3.172-.776 1.136 0 2.164.244 3.085.733a5.264 5.264 0 012.157 2.114c.532.907.798 1.964.798 3.172zm-6.019-3.474c-.762 0-1.402.216-1.92.648-.518.431-.834 1.02-.95 1.769h5.718c-.115-.734-.432-1.316-.95-1.748-.517-.446-1.15-.669-1.898-.669zM50.752 47.132h-3.927v8.845h-3.343v-8.845h-3.927V44.37h11.197v2.762z" fill="#FEDF07"/></svg></svg>