<svg id="Слой_1" data-name="Слой 1" xmlns="http://www.w3.org/2000/svg" width="200.08" height="80" viewBox="0 0 200.08 80"><defs><style>.cls-1{fill:#3c4247;}.cls-2{fill:#ffdf00;}</style></defs><path class="cls-1" d="M175.48,46.39V29.12h-3.56V25.26h12.19v3.86h-3.58V46.39Zm-22.09.23v-4a3.41,3.41,0,0,0,1.71-.39,2.6,2.6,0,0,0,1.09-1.31,10,10,0,0,0,.61-2.52c.16-1.06.28-2.42.4-4.08l.6-9.1h11.82V46.38h-5.09V29.12H162l-.45,6.25a44.11,44.11,0,0,1-.61,5.49,9.85,9.85,0,0,1-1.23,3.44,4.39,4.39,0,0,1-2.15,1.77,9.73,9.73,0,0,1-3.47.54Zm-8.64-3.78a1.47,1.47,0,0,0,.71-.18,2,2,0,0,0,.58-.47,3.87,3.87,0,0,0,.43-.55V35.82a12,12,0,0,0-1.32,1,5.91,5.91,0,0,0-1,1,4,4,0,0,0-.67,1.21,4.25,4.25,0,0,0-.24,1.5,3.2,3.2,0,0,0,.41,1.74,1.27,1.27,0,0,0,1,.65Zm-1.92,3.92a3.77,3.77,0,0,1-2.38-.77A4.72,4.72,0,0,1,139,44.12a6,6,0,0,1-.5-2.41A6.72,6.72,0,0,1,141,36a12.25,12.25,0,0,1,2.57-1.56c.94-.45,1.88-.85,2.82-1.21v-2a6.07,6.07,0,0,0-.09-1.2,1.49,1.49,0,0,0-.4-.79,1.13,1.13,0,0,0-.82-.28,1.28,1.28,0,0,0-.82.24,1.32,1.32,0,0,0-.41.69,5.62,5.62,0,0,0-.15,1l-.1,1.46-4.81-.21q.16-3.73,1.8-5.52a6.34,6.34,0,0,1,4.94-1.8,5.28,5.28,0,0,1,4.38,1.78,7.28,7.28,0,0,1,1.41,4.66v12a16.16,16.16,0,0,0,.13,1.72c0,.5.12,1,.15,1.29H147c-.06-.53-.14-1.12-.23-1.75s-.16-1.06-.2-1.28a5.43,5.43,0,0,1-1.29,2.35A3.17,3.17,0,0,1,142.83,46.76Zm-13.14,0a6.67,6.67,0,0,1-3.6-.89,5.55,5.55,0,0,1-2.17-2.55,9.38,9.38,0,0,1-.73-3.91V32.28a9.45,9.45,0,0,1,.73-4,5.41,5.41,0,0,1,2.17-2.51,7,7,0,0,1,3.6-.87,7.82,7.82,0,0,1,3.5.71,4.56,4.56,0,0,1,2.11,2.14,8.36,8.36,0,0,1,.69,3.59v2h-4.85V31.18A6.15,6.15,0,0,0,131,29.7a1.35,1.35,0,0,0-2.11-.73,1.78,1.78,0,0,0-.44,1,8.74,8.74,0,0,0-.13,1.77v8.31a5.19,5.19,0,0,0,.35,2.31,1.17,1.17,0,0,0,1.06.61,1.27,1.27,0,0,0,.84-.26,1.45,1.45,0,0,0,.44-.8,5.91,5.91,0,0,0,.14-1.39V38H136v2.3a8.25,8.25,0,0,1-.71,3.6,4.72,4.72,0,0,1-2.11,2.26,7.45,7.45,0,0,1-3.48.68Zm-23.3-.37V25.26h5.08V33.6H115V25.26h5.12V46.38H115v-9h-3.53v9ZM96.73,43a1.25,1.25,0,0,0,1-.38,2.1,2.1,0,0,0,.43-1.07,8.91,8.91,0,0,0,.1-1.55V31.65a9.09,9.09,0,0,0-.1-1.56A2.29,2.29,0,0,0,97.73,29a1.38,1.38,0,0,0-1.92,0,2.23,2.23,0,0,0-.51,1.1,9.1,9.1,0,0,0-.11,1.56v8.38a8.91,8.91,0,0,0,.11,1.55,2.25,2.25,0,0,0,.47,1.07A1.21,1.21,0,0,0,96.73,43Zm0,3.73a7.31,7.31,0,0,1-3.58-.83,5.17,5.17,0,0,1-2.23-2.39,8.8,8.8,0,0,1-.76-3.92V32a8.78,8.78,0,0,1,.76-3.91,5.17,5.17,0,0,1,2.23-2.39,8.07,8.07,0,0,1,7.14,0,5.36,5.36,0,0,1,2.2,2.39,8.82,8.82,0,0,1,.78,3.92v7.58a8.82,8.82,0,0,1-.78,3.92,5.28,5.28,0,0,1-2.26,2.39A7.23,7.23,0,0,1,96.73,46.76Zm-24.59-.37V16.77H77.7v12h.77l4.21-12h5.53L83.12,30.7l5.36,15.69h-5.7L78.42,33.12h-.77V46.39ZM59.5,35.75V32.12h8.41v3.62ZM39.33,46.39V16.77h16.1V46.39H50V21.12H44.86v25.3Zm-11,.41a8.25,8.25,0,0,1-4.81-1.25A6.43,6.43,0,0,1,21,42.12,16.85,16.85,0,0,1,20.3,37V26.32A17.85,17.85,0,0,1,21,21a6.43,6.43,0,0,1,2.48-3.42,8.43,8.43,0,0,1,4.8-1.2,8.49,8.49,0,0,1,4.6,1.06,5.74,5.74,0,0,1,2.35,3A13.54,13.54,0,0,1,36,25v2.48H30.57V24.67a17.64,17.64,0,0,0-.1-1.92,2.77,2.77,0,0,0-.56-1.46,1.92,1.92,0,0,0-1.57-.57,2,2,0,0,0-1.61.59,2.83,2.83,0,0,0-.64,1.52A14.15,14.15,0,0,0,26,24.89V38.34a11.4,11.4,0,0,0,.19,2.18,2.65,2.65,0,0,0,.7,1.42,2.15,2.15,0,0,0,1.5.5,1.92,1.92,0,0,0,1.54-.57,3,3,0,0,0,.58-1.51,16.65,16.65,0,0,0,.12-2v-2.9H36V38a14.52,14.52,0,0,1-.67,4.58A6.18,6.18,0,0,1,33,45.65,8.16,8.16,0,0,1,28.33,46.8ZM8,36.23h3.3l-1.63-12ZM1.29,46.43,6.56,16.77h6.16L18,46.39H12.82l-1-6.51H7.53l-1,6.51Z"/><rect class="cls-2" x="1.27" y="56.27" width="182.8" height="3.69"/></svg>