<svg id="Capa_1" enable-background="new 0 0 512 512" height="512" viewBox="0 0 512 512" width="512" xmlns="http://www.w3.org/2000/svg"><g><path d="m502 85.73h-38.506c-57.143-17.459-131.79-32.853-207.494-.898-19.425-8.2-38.78-13.276-57.788-16.006-.513-.116-1.041-.188-1.58-.222-54.489-7.46-106.052 4.27-148.126 17.126h-38.506c-5.523 0-10 4.477-10 10v340c0 5.523 4.477 10 10 10h492c5.523 0 10-4.477 10-10v-340c0-5.523-4.477-10-10-10zm-236.054 16.629c66.695-27.263 133.542-14.75 186.054.797v279.144c-23.253-6.731-50.06-13.111-79.458-15.33-7.199-.543-14.319-.815-21.36-.815-30.318 0-59.12 5.033-85.984 15.029-.78-42.687-.061-180.65.748-278.825zm-21.029 246.109c.054 13.553.151 24.344.29 32.13-32.665-11.883-68.158-16.465-105.749-13.628-29.398 2.219-56.205 8.599-79.458 15.33v-279.144c20.159-5.969 42.434-11.486 66-14.481v87.055c0 4.304 2.754 8.126 6.838 9.487 4.083 1.361 8.579-.043 11.162-3.487l22-29.333 22 29.333c1.925 2.567 4.914 4.001 8.001 4.001 1.055 0 2.121-.167 3.161-.514 4.083-1.361 6.838-5.183 6.838-9.487v-85.271c13.244 2.557 26.598 6.408 39.946 11.855-.16 19.986-.635 81.773-.897 142.99-.186 43.5-.23 78.21-.132 103.164zm247.083 77.262h-472v-320h20v290c0 3.174 1.506 6.158 4.059 8.044 2.553 1.885 5.849 2.447 8.882 1.514 38.221-11.76 117.613-36.188 198.184-.779 2.917 1.557 6.153 1.595 8.937.36 80.85-35.933 160.648-11.38 198.998.42 3.034.933 6.33.372 8.882-1.514 2.553-1.885 4.059-4.87 4.059-8.044v-290h20v319.999z"/><path d="m296.879 311.301c16.841-3.425 34.331-5.161 51.982-5.161 22.575 0 50.472 2.813 71.071 7.167.697.147 1.393.218 2.078.218 4.625 0 8.779-3.228 9.773-7.934 1.142-5.404-2.313-10.71-7.716-11.852-21.841-4.616-51.362-7.599-75.207-7.599-18.987 0-37.817 1.871-55.967 5.562-5.412 1.101-8.907 6.38-7.807 11.792 1.102 5.412 6.381 8.908 11.793 7.807z"/><path d="m298.552 253.296c15.955-4.612 32.904-6.95 50.377-6.95 26.202 0 54.384 4.904 70.557 9.103.843.219 1.688.323 2.52.323 4.445 0 8.503-2.986 9.672-7.489 1.388-5.346-1.82-10.804-7.166-12.192-17.313-4.495-47.497-9.745-75.583-9.745-19.353 0-38.171 2.603-55.931 7.737-5.306 1.534-8.364 7.078-6.83 12.384 1.534 5.305 7.08 8.362 12.384 6.829z"/><path d="m317.676 168.926c10.072-1.712 20.587-2.58 31.254-2.58 16.153 0 37.184 1.913 51.145 4.652.65.127 1.297.189 1.936.189 4.684 0 8.866-3.307 9.802-8.077 1.063-5.419-2.468-10.675-7.888-11.738-15.083-2.959-37.699-5.026-54.996-5.026-11.787 0-23.43.963-34.605 2.863-5.445.926-9.108 6.09-8.183 11.535.926 5.443 6.086 9.108 11.535 8.182z"/><path d="m216.865 291.256c-17.447-3.395-35.523-5.116-53.726-5.116-23.845 0-53.365 2.983-75.207 7.599-5.403 1.142-8.858 6.448-7.716 11.852.995 4.707 5.148 7.934 9.773 7.934.685 0 1.381-.071 2.078-.218 20.599-4.354 48.496-7.167 71.071-7.167 16.924 0 33.715 1.597 49.907 4.748 5.42 1.055 10.671-2.485 11.726-7.906 1.055-5.422-2.485-10.671-7.906-11.726z"/><path d="m218.537 233.948c-17.628-5.045-36.29-7.603-55.466-7.603-28.087 0-58.271 5.25-75.583 9.745-5.346 1.388-8.554 6.846-7.166 12.192 1.169 4.503 5.227 7.49 9.672 7.489.832 0 1.678-.105 2.52-.323 16.173-4.199 44.355-9.103 70.557-9.103 17.315 0 34.125 2.298 49.963 6.831 5.31 1.52 10.847-1.553 12.366-6.863 1.519-5.309-1.554-10.845-6.863-12.365z"/></g></svg>