<svg width="60" height="60" viewBox="0 0 60 60" fill="none" xmlns="http://www.w3.org/2000/svg">
<rect width="60" height="60"/>
<path d="M37.1528 41.6805L26.5379 31.1159V16.8788H32.9773V28.3993L41.6805 37.1528L37.1528 41.6805ZM29.7576 4C26.2025 4 22.8654 4.67077 19.7463 6.01231C16.5937 7.35385 13.8436 9.19847 11.4959 11.5462C9.1817 13.8603 7.35385 16.5937 6.01231 19.7463C4.67077 22.8654 4 26.2025 4 29.7576C4 33.3127 4.67077 36.6497 6.01231 39.7688C7.35385 42.9214 9.1817 45.6716 11.4959 48.0193C13.8436 50.3335 16.5937 52.1613 19.7463 53.5028C22.8654 54.8444 26.2025 55.5152 29.7576 55.5152C33.3127 55.5152 36.6497 54.8444 39.7688 53.5028C42.9214 52.1613 45.6548 50.3335 47.969 48.0193C50.3167 45.6716 52.1613 42.9214 53.5028 39.7688C54.8444 36.6497 55.5152 33.3127 55.5152 29.7576C55.5152 26.2025 54.8444 22.8654 53.5028 19.7463C52.1613 16.5937 50.3167 13.8603 47.969 11.5462C45.6548 9.19847 42.9214 7.35385 39.7688 6.01231C36.6497 4.67077 33.3127 4 29.7576 4ZM29.7576 49.0758C27.0745 49.0758 24.5759 48.5727 22.2617 47.5665C19.914 46.5604 17.8514 45.1853 16.0739 43.4413C14.3299 41.6638 12.9548 39.6011 11.9486 37.2534C10.9425 34.9393 10.4394 32.4407 10.4394 29.7576C10.4394 27.0745 10.9425 24.5759 11.9486 22.2617C12.9548 19.914 14.3299 17.8682 16.0739 16.1242C17.8514 14.3466 19.914 12.9548 22.2617 11.9486C24.5759 10.9425 27.0745 10.4394 29.7576 10.4394C32.4407 10.4394 34.9393 10.9425 37.2534 11.9486C39.6011 12.9548 41.647 14.3466 43.391 16.1242C45.1685 17.8682 46.5604 19.914 47.5665 22.2617C48.5727 24.5759 49.0758 27.0745 49.0758 29.7576C49.0758 32.4407 48.5727 34.9393 47.5665 37.2534C46.5604 39.6011 45.1685 41.6638 43.391 43.4413C41.647 45.1853 39.6011 46.5604 37.2534 47.5665C34.9393 48.5727 32.4407 49.0758 29.7576 49.0758Z" fill="#FEDF07"/>
</svg>
