<svg width="60" height="60" viewBox="0 0 60 60" fill="none" xmlns="http://www.w3.org/2000/svg">
<rect width="60" height="60"/>
<path d="M30.8764 5.69234H29.7163C29.4137 5.69234 29.1615 5.58816 28.9598 5.3798C28.7581 5.13672 28.6572 4.8589 28.6572 4.54636C28.6572 3.8171 28.405 3.19202 27.9006 2.67112C27.3963 2.15022 26.791 1.88977 26.0849 1.88977H26.0345C25.3284 1.88977 24.7231 2.15022 24.2188 2.67112C23.7144 3.19202 23.4622 3.8171 23.4622 4.54636C23.4622 4.8589 23.3445 5.13672 23.1092 5.3798C22.9074 5.58816 22.6553 5.69234 22.3526 5.69234H21.1926C20.621 5.69234 20.1166 5.91807 19.6795 6.36951C19.2424 6.78623 19.0238 7.30714 19.0238 7.93222V7.98431C19.0238 8.57466 19.2424 9.09556 19.6795 9.54701C20.1166 9.99845 20.621 10.2242 21.1926 10.2242H30.8764C31.4816 10.2242 31.986 9.99845 32.3895 9.54701C32.8266 9.09556 33.0451 8.57466 33.0451 7.98431V7.93222C33.0451 7.30714 32.8266 6.78623 32.3895 6.36951C31.986 5.91807 31.4816 5.69234 30.8764 5.69234ZM26.0345 5.69234C25.7319 5.69234 25.4629 5.58816 25.2275 5.3798C25.0258 5.13672 24.9249 4.8589 24.9249 4.54636C24.9249 4.23382 25.0258 3.97337 25.2275 3.76501C25.4629 3.55665 25.7319 3.45247 26.0345 3.45247C26.3035 3.45247 26.5389 3.57402 26.7406 3.8171C26.976 4.02546 27.0937 4.26855 27.0937 4.54636C27.0937 4.8589 26.9928 5.13672 26.791 5.3798C26.5893 5.58816 26.3371 5.69234 26.0345 5.69234ZM30.9773 49.9168H12.3662C11.5929 49.9168 10.9036 49.6216 10.2983 49.0313C9.72672 48.4062 9.44092 47.6769 9.44092 46.8435V10.2763C9.44092 9.44283 9.6931 8.73093 10.1975 8.14058C10.7355 7.51549 11.223 7.20295 11.6601 7.20295H17.662C17.6284 7.34186 17.6116 7.48077 17.6116 7.61968C17.6116 7.75858 17.6116 7.89749 17.6116 8.0364C17.6116 9.0782 17.9647 9.96373 18.6708 10.693C19.4105 11.4222 20.2679 11.7869 21.243 11.7869H30.9268C31.9355 11.7869 32.793 11.4222 33.4991 10.693C34.2388 9.929 34.6087 9.02611 34.6087 7.98431C34.6087 7.8454 34.5919 7.72386 34.5582 7.61968C34.5582 7.48077 34.5582 7.34186 34.5582 7.20295H39.0471C40.2239 7.20295 41.115 7.51549 41.7202 8.14058C42.3591 8.73093 42.6785 9.44283 42.6785 10.2763V33.1438C42.5776 33.1438 42.4599 33.1438 42.3254 33.1438C42.2246 33.1091 42.1069 33.0917 41.9724 33.0917C41.468 33.0917 40.9637 33.1264 40.4593 33.1959C39.9886 33.2653 39.5178 33.3695 39.0471 33.5084V15.5895H13.2236V46.0621H30.2207C30.2207 46.7567 30.288 47.4338 30.4225 48.0936C30.557 48.7187 30.7419 49.3264 30.9773 49.9168ZM41.922 35.4358C39.2656 35.4358 36.996 36.4081 35.113 38.3528C33.2637 40.2628 32.339 42.6068 32.339 45.385C32.339 48.1284 33.2637 50.4551 35.113 52.365C36.996 54.275 39.2656 55.23 41.922 55.23C44.5783 55.23 46.8479 54.2576 48.7309 52.3129C50.6138 50.403 51.5553 48.0763 51.5553 45.3329C51.5553 42.5547 50.597 40.2107 48.6804 38.3007C46.7975 36.3907 44.5446 35.4358 41.922 35.4358ZM48.1761 43.3014L42.275 50.1772C42.1405 50.3162 41.9724 50.4377 41.7706 50.5419C41.6025 50.6461 41.4176 50.6981 41.2158 50.6981C41.0477 50.6981 40.8796 50.6808 40.7115 50.6461C40.5434 50.5766 40.392 50.4898 40.2576 50.3856L36.6261 47.3123C36.2899 47.0692 36.105 46.7393 36.0713 46.3226C36.0377 45.9059 36.1554 45.5239 36.4244 45.1766C36.6598 44.8641 36.9792 44.6904 37.3827 44.6557C37.7862 44.621 38.1392 44.7252 38.4418 44.9682L41.0645 47.1039L46.0073 41.374C46.2763 41.0615 46.6125 40.8879 47.016 40.8531C47.4531 40.8184 47.8062 40.9573 48.0752 41.2698C48.3442 41.4782 48.4955 41.7907 48.5291 42.2075C48.5627 42.5895 48.4451 42.9541 48.1761 43.3014ZM35.2643 28.5599H23.4622C23.2269 28.5599 23.0419 28.4904 22.9074 28.3515C22.7729 28.2126 22.7057 28.039 22.7057 27.8306V27.0493C22.7057 26.8409 22.7729 26.6673 22.9074 26.5284C23.0419 26.3895 23.2269 26.32 23.4622 26.32H35.2643C35.4661 26.32 35.6342 26.3895 35.7687 26.5284C35.9032 26.6673 35.9705 26.8409 35.9705 27.0493V27.8306C35.9705 28.039 35.9032 28.2126 35.7687 28.3515C35.6342 28.4904 35.4661 28.5599 35.2643 28.5599ZM35.2643 21.684H23.4622C23.2269 21.684 23.0419 21.6145 22.9074 21.4756C22.7729 21.3367 22.7057 21.1631 22.7057 20.9547V20.1734C22.7057 19.965 22.7729 19.7914 22.9074 19.6525C23.0419 19.5136 23.2269 19.4441 23.4622 19.4441H35.2643C35.4661 19.4441 35.6342 19.5136 35.7687 19.6525C35.9032 19.7914 35.9705 19.965 35.9705 20.1734V20.9547C35.9705 21.1631 35.9032 21.3367 35.7687 21.4756C35.6342 21.6145 35.4661 21.684 35.2643 21.684ZM31.5825 34.6544H23.4622C23.2269 34.6544 23.0419 34.585 22.9074 34.446C22.7729 34.3071 22.7057 34.1161 22.7057 33.8731V33.1438C22.7057 32.9354 22.7729 32.7618 22.9074 32.6229C23.0419 32.484 23.2269 32.4145 23.4622 32.4145H31.5321C31.7338 32.4145 31.9019 32.484 32.0364 32.6229C32.2045 32.7618 32.2886 32.9354 32.2886 33.1438V33.8731C32.2886 34.1161 32.2214 34.3071 32.0869 34.446C31.9524 34.585 31.7842 34.6544 31.5825 34.6544ZM30.1198 41.5303H23.4622C23.2269 41.5303 23.0419 41.4608 22.9074 41.3219C22.7729 41.183 22.7057 40.992 22.7057 40.7489V40.0197C22.7057 39.8113 22.7729 39.6377 22.9074 39.4988C23.0419 39.3599 23.2269 39.2904 23.4622 39.2904H30.1198C30.3216 39.2904 30.4897 39.3599 30.6242 39.4988C30.7587 39.6377 30.8259 39.8113 30.8259 40.0197V40.7489C30.8259 40.9573 30.7587 41.1483 30.6242 41.3219C30.4897 41.4608 30.3216 41.5303 30.1198 41.5303ZM21.3439 18.9232L18.5699 22.0486C18.5027 22.1181 18.4186 22.1702 18.3177 22.2049C18.2505 22.2396 18.1664 22.257 18.0655 22.257C17.9983 22.257 17.9142 22.257 17.8134 22.257C17.7461 22.2222 17.6957 22.1702 17.662 22.1007L15.9472 20.6943C15.7791 20.5901 15.6782 20.4512 15.6446 20.2776C15.6446 20.0692 15.7118 19.8956 15.8463 19.7567C15.9808 19.583 16.1321 19.4962 16.3003 19.4962C16.502 19.4615 16.6533 19.5136 16.7542 19.6525L17.9647 20.5901L20.2343 17.9335C20.3688 17.7946 20.5201 17.7251 20.6882 17.7251C20.89 17.6904 21.0581 17.7425 21.1926 17.8814C21.3607 18.0203 21.4448 18.194 21.4448 18.4023C21.4784 18.5759 21.4448 18.7496 21.3439 18.9232ZM21.3439 25.6949L18.5699 28.8203C18.5027 28.8898 18.4186 28.9419 18.3177 28.9766C18.2505 29.0113 18.1664 29.0287 18.0655 29.0287C17.9983 29.0287 17.9142 29.0287 17.8134 29.0287C17.7461 28.994 17.6957 28.9419 17.662 28.8724L15.9472 27.5181C15.7791 27.3792 15.6782 27.2229 15.6446 27.0493C15.6446 26.8409 15.7118 26.6673 15.8463 26.5284C15.9808 26.3547 16.1321 26.2679 16.3003 26.2679C16.502 26.2332 16.6533 26.2853 16.7542 26.4242L17.9647 27.3618L20.2343 24.7052C20.3688 24.5663 20.5201 24.4969 20.6882 24.4969C20.89 24.4621 21.0581 24.5142 21.1926 24.6531C21.3607 24.792 21.4448 24.9657 21.4448 25.174C21.4784 25.3477 21.4448 25.5213 21.3439 25.6949ZM21.3439 32.1541L18.5699 35.2795C18.5027 35.3489 18.4186 35.401 18.3177 35.4358C18.2505 35.4705 18.1664 35.4879 18.0655 35.4879C17.9983 35.4879 17.9142 35.4879 17.8134 35.4879C17.7461 35.4531 17.6957 35.401 17.662 35.3316L15.9472 33.9251C15.7791 33.821 15.6782 33.6821 15.6446 33.5084C15.6446 33.3001 15.7118 33.1264 15.8463 32.9875C15.9808 32.8139 16.1321 32.7271 16.3003 32.7271C16.502 32.6924 16.6533 32.7444 16.7542 32.8833L17.9647 33.821L20.2343 31.1644C20.3688 31.0255 20.5201 30.956 20.6882 30.956C20.89 30.9213 21.0581 30.9734 21.1926 31.1123C21.3607 31.2512 21.4448 31.4248 21.4448 31.6332C21.4784 31.8415 21.4448 32.0152 21.3439 32.1541ZM21.3439 38.7174L18.5699 41.8428C18.5027 41.9123 18.4186 41.9644 18.3177 41.9991C18.2505 42.0338 18.1664 42.0512 18.0655 42.0512C17.9983 42.0512 17.9142 42.0512 17.8134 42.0512C17.7461 42.0165 17.6957 41.9644 17.662 41.8949L15.9472 40.4885C15.7791 40.3843 15.6782 40.2454 15.6446 40.0718C15.6446 39.8634 15.7118 39.6898 15.8463 39.5509C15.9808 39.3772 16.1321 39.2904 16.3003 39.2904C16.502 39.2557 16.6533 39.3078 16.7542 39.4467L17.9647 40.3843L20.2343 37.7277C20.3688 37.5888 20.5201 37.5194 20.6882 37.5194C20.89 37.4846 21.0581 37.5367 21.1926 37.6756C21.3607 37.8145 21.4448 37.9882 21.4448 38.1965C21.4784 38.3702 21.4448 38.5438 21.3439 38.7174Z" fill="#FEDF07"/>
</svg>
