<svg width="60" height="60" viewBox="0 0 60 60" fill="none" xmlns="http://www.w3.org/2000/svg">
<rect width="60" height="60"/>
<path d="M20.827 4.70205V36.8821H13.3796V10.6783H6.9436V4.70205H20.827Z" fill="#FEDF07"/>
<path d="M40.2086 37.4337C37.5423 37.4337 35.1671 36.7748 33.083 35.4569C30.999 34.1391 29.3594 32.2389 28.1641 29.7565C26.9995 27.2434 26.4172 24.2552 26.4172 20.7921C26.4172 17.3289 26.9995 14.356 28.1641 11.8736C29.3594 9.36049 30.999 7.44501 33.083 6.12716C35.1671 4.80931 37.5423 4.15039 40.2086 4.15039C42.875 4.15039 45.2501 4.80931 47.3342 6.12716C49.4182 7.44501 51.0425 9.36049 52.2072 11.8736C53.4024 14.356 54 17.3289 54 20.7921C54 24.2552 53.4024 27.2434 52.2072 29.7565C51.0425 32.2389 49.4182 34.1391 47.3342 35.4569C45.2501 36.7748 42.875 37.4337 40.2086 37.4337ZM40.2086 31.1356C42.1701 31.1356 43.7024 30.2928 44.8058 28.6072C45.9397 26.9216 46.5067 24.3165 46.5067 20.7921C46.5067 17.2676 45.9397 14.6625 44.8058 12.9769C43.7024 11.2913 42.1701 10.4485 40.2086 10.4485C38.2778 10.4485 36.7454 11.2913 35.6115 12.9769C34.5082 14.6625 33.9565 17.2676 33.9565 20.7921C33.9565 24.3165 34.5082 26.9216 35.6115 28.6072C36.7454 30.2928 38.2778 31.1356 40.2086 31.1356Z" fill="#FEDF07"/>
<path d="M24.3018 44.3703V55.977H20.9363V47.1318H17.2688L17.1609 49.1813C17.1034 50.7058 16.9595 51.9715 16.7294 52.9782C16.4993 53.985 16.1254 54.776 15.6076 55.3513C15.0898 55.9266 14.3707 56.2143 13.4502 56.2143C12.9612 56.2143 12.3787 56.128 11.7028 55.9554L11.8753 53.194C12.1055 53.2227 12.2709 53.2371 12.3715 53.2371C12.8749 53.2371 13.2489 53.0573 13.4934 52.6978C13.7523 52.3238 13.9248 51.8564 14.0111 51.2955C14.0974 50.7202 14.1622 49.9651 14.2053 49.0303L14.3779 44.3703H24.3018Z" fill="#FEDF07"/>
<path d="M38.8212 50.2168C38.8212 50.2599 38.7996 50.562 38.7564 51.1229H29.976C30.1342 51.842 30.5081 52.4101 31.0978 52.8272C31.6875 53.2443 32.421 53.4528 33.2983 53.4528C33.9024 53.4528 34.4345 53.3666 34.8948 53.194C35.3694 53.007 35.808 52.7193 36.2108 52.331L38.0014 54.2726C36.9083 55.5239 35.3119 56.1496 33.212 56.1496C31.9032 56.1496 30.7454 55.8979 29.7387 55.3945C28.7319 54.8767 27.9552 54.1648 27.4087 53.2587C26.8622 52.3526 26.5889 51.3242 26.5889 50.1737C26.5889 49.0374 26.855 48.0163 27.3871 47.1102C27.9337 46.1897 28.6744 45.4778 29.6092 44.9744C30.5585 44.4566 31.6156 44.1978 32.7805 44.1978C33.9168 44.1978 34.9451 44.4423 35.8656 44.9313C36.7861 45.4203 37.5052 46.125 38.0229 47.0455C38.5551 47.9516 38.8212 49.0087 38.8212 50.2168ZM32.8021 46.7434C32.0399 46.7434 31.3998 46.9592 30.8821 47.3907C30.3643 47.8221 30.0479 48.4118 29.9328 49.1597H35.6498C35.5348 48.4262 35.2184 47.8437 34.7006 47.4122C34.1828 46.9664 33.55 46.7434 32.8021 46.7434Z" fill="#FEDF07"/>
<path d="M50.7519 47.1318H46.8255V55.977H43.4816V47.1318H39.5552V44.3703H50.7519V47.1318Z" fill="#FEDF07"/>
</svg>
